<svg xmlns="http://www.w3.org/2000/svg" fill="none" viewBox="0 0 1352 161">
  <path fill="currentColor" fill-rule="evenodd" d="M825.6 33.5c-8.028 0-14.503.27-19.63 1.371-5.197 1.117-9.244 3.138-12.162 6.795-2.858 3.582-4.383 8.43-5.237 14.667-.855 6.252-1.071 14.217-1.071 24.267 0 10.05.216 18.015 1.071 24.267.854 6.237 2.379 11.085 5.237 14.667 2.918 3.657 6.965 5.678 12.162 6.795 5.127 1.102 11.602 1.371 19.63 1.371 8.028 0 14.502-.269 19.63-1.371 5.197-1.117 9.244-3.138 12.162-6.795 2.858-3.582 4.383-8.43 5.236-14.667.856-6.252 1.072-14.217 1.072-24.267 0-10.05-.216-18.015-1.072-24.267-.853-6.237-2.378-11.085-5.236-14.667-2.918-3.657-6.965-5.678-12.162-6.794-5.128-1.102-11.602-1.372-19.63-1.372Zm-33.1 47.1c0-10.05.221-17.71 1.025-23.59.807-5.894 2.163-9.683 4.192-12.226 1.969-2.468 4.816-4.06 9.304-5.024 4.556-.98 10.557-1.26 18.579-1.26s14.022.28 18.579 1.26c4.488.964 7.335 2.556 9.304 5.024 2.029 2.543 3.385 6.332 4.192 12.227.804 5.88 1.025 13.54 1.025 23.59 0 10.049-.221 17.709-1.025 23.588-.807 5.895-2.163 9.684-4.192 12.227-1.969 2.468-4.816 4.06-9.304 5.024-4.557.98-10.557 1.26-18.579 1.26s-14.023-.28-18.579-1.26c-4.488-.964-7.335-2.556-9.304-5.024-2.029-2.543-3.385-6.332-4.192-12.227-.804-5.88-1.025-13.54-1.025-23.589Z" clip-rule="evenodd" />
  <path fill="currentColor" fill-rule="evenodd" d="M761.489 16.963C773.959 4.586 794.423.8 825.6.8c31.128 0 51.59 3.786 64.073 16.162C902.162 29.345 906 49.666 906 80.6c0 30.934-3.838 51.255-16.327 63.638C877.19 156.614 856.728 160.4 825.6 160.4c-31.128 0-51.59-3.786-64.073-16.162-12.49-12.383-16.327-32.704-16.327-63.638 0-30.931 3.812-51.253 16.289-63.637ZM750.2 80.6c0-30.968 3.938-49.297 14.811-60.088C775.89 9.714 794.377 5.8 825.6 5.8c31.172 0 49.66 3.914 60.552 14.713C897.038 31.305 901 49.634 901 80.6c0 30.966-3.962 49.295-14.848 60.087-10.892 10.799-29.38 14.713-60.552 14.713s-49.66-3.914-60.552-14.713C754.162 129.895 750.2 111.566 750.2 80.6Zm242.7-47.1c-8.028 0-14.502.27-19.63 1.371-5.197 1.117-9.244 3.138-12.162 6.795-2.858 3.582-4.383 8.43-5.236 14.667-.856 6.252-1.072 14.217-1.072 24.267 0 10.05.216 18.015 1.072 24.267.853 6.237 2.378 11.085 5.236 14.667 2.918 3.657 6.965 5.678 12.162 6.795 5.128 1.102 11.602 1.371 19.63 1.371 8.03 0 14.5-.269 19.63-1.371 5.2-1.117 9.24-3.138 12.16-6.795 2.86-3.582 4.39-8.43 5.24-14.667.85-6.252 1.07-14.217 1.07-24.267 0-10.05-.22-18.015-1.07-24.267-.85-6.237-2.38-11.085-5.24-14.667-2.92-3.657-6.96-5.678-12.16-6.794-5.13-1.102-11.6-1.372-19.63-1.372Zm-33.1 47.1c0-10.05.221-17.71 1.025-23.59.807-5.894 2.163-9.683 4.192-12.226 1.969-2.468 4.816-4.06 9.304-5.024 4.557-.98 10.557-1.26 18.579-1.26 8.02 0 14.02.28 18.58 1.26 4.49.964 7.33 2.556 9.3 5.024 2.03 2.543 3.39 6.332 4.19 12.227.81 5.88 1.03 13.54 1.03 23.59 0 10.049-.22 17.709-1.03 23.588-.8 5.895-2.16 9.684-4.19 12.227-1.97 2.468-4.81 4.06-9.3 5.024-4.56.98-10.56 1.26-18.58 1.26-8.022 0-14.022-.28-18.579-1.26-4.488-.964-7.335-2.556-9.304-5.024-2.029-2.543-3.385-6.332-4.192-12.227-.804-5.88-1.025-13.54-1.025-23.589Z" clip-rule="evenodd" />
  <path fill="currentColor" fill-rule="evenodd" d="M992.9.8c-31.128 0-51.59 3.786-64.073 16.162C916.338 29.345 912.5 49.666 912.5 80.6c0 30.934 3.838 51.255 16.327 63.638C941.31 156.614 961.772 160.4 992.9 160.4c31.13 0 51.59-3.786 64.07-16.162 12.49-12.383 16.33-32.704 16.33-63.638 0-30.934-3.84-51.255-16.33-63.638C1044.49 4.586 1024.03.8 992.9.8Zm-75.4 79.8c0-30.966 3.962-49.295 14.848-60.087C943.24 9.713 961.728 5.8 992.9 5.8c31.17 0 49.66 3.914 60.55 14.713 10.89 10.792 14.85 29.121 14.85 60.087 0 30.966-3.96 49.295-14.85 60.087-10.89 10.799-29.38 14.713-60.55 14.713-31.172 0-49.66-3.914-60.552-14.713C921.462 129.895 917.5 111.566 917.5 80.6ZM1278.8.8c-13.77 0-25.1.563-34.34 1.998-9.23 1.434-16.54 3.762-22.16 7.404-11.51 7.466-15.1 19.862-15.1 38.098 0 7.137.78 13.287 2.86 18.626 2.09 5.39 5.46 9.83 10.41 13.6 9.74 7.409 25.64 12.236 50.14 17.126 14.2 2.81 22.82 5.059 27.89 7.575 2.49 1.236 3.91 2.439 4.73 3.62.79 1.137 1.17 2.463 1.17 4.253 0 2.719-.21 4.409-.69 5.563-.41.967-1.07 1.701-2.55 2.315-1.63.672-4.11 1.142-7.99 1.427-3.83.282-8.8.37-15.28.395-6.44 0-11.34-.121-15.1-.563-3.78-.445-6.1-1.187-7.6-2.213-1.39-.945-2.3-2.293-2.88-4.58-.61-2.393-.81-5.63-.81-10.144a2.5 2.5 0 0 0-2.5-2.5h-42.3a2.5 2.5 0 0 0-2.5 2.5c0 21.2 3.69 35.494 15.62 44.16 5.86 4.263 13.52 7.001 23.2 8.689 9.68 1.688 21.55 2.351 35.98 2.351 14.04 0 25.58-.532 34.98-1.888 9.39-1.355 16.81-3.553 22.51-6.997 11.74-7.088 15.41-18.921 15.41-36.315 0-7.739-.96-14.418-3.42-20.231-2.48-5.856-6.42-10.682-12.15-14.799-11.27-8.109-29.59-13.53-57.64-19.021-10.25-2.11-16.36-3.825-19.91-5.837-1.71-.968-2.67-1.922-3.23-2.884-.55-.96-.85-2.151-.85-3.828 0-2.827.19-4.655.66-5.929.4-1.095 1.03-1.835 2.3-2.437 1.42-.675 3.64-1.167 7.19-1.461 3.51-.29 8.08-.373 14.05-.373 6.05 0 10.61.134 14.1.617 3.5.485 5.6 1.285 6.96 2.379 1.28 1.039 2.19 2.581 2.77 5.241.58 2.725.77 6.37.77 11.363a2.5 2.5 0 0 0 2.5 2.5h42.3a2.5 2.5 0 0 0 2.5-2.5c0-22.003-3.55-36.795-15.01-45.791-5.66-4.447-13.05-7.304-22.38-9.063C1304.08 1.49 1292.66.8 1278.8.8Zm-66.6 47.5c0-17.764 3.51-27.868 12.82-33.902 4.8-3.108 11.33-5.28 20.21-6.659 8.86-1.377 19.89-1.939 33.57-1.939 13.74 0 24.81.687 33.68 2.36 8.88 1.673 15.41 4.304 20.23 8.081 9.12 7.164 12.8 19.09 13.07 39.36h-37.3c-.06-3.898-.28-7.19-.87-9.92-.72-3.358-2.05-6.09-4.52-8.077-2.39-1.93-5.55-2.906-9.4-3.44-3.87-.535-8.74-.664-14.79-.664-5.98 0-10.72.08-14.46.39-3.7.306-6.66.852-8.92 1.926-2.42 1.148-3.99 2.87-4.85 5.225-.81 2.176-.97 4.786-.97 7.659 0 2.273.4 4.406 1.53 6.344 1.13 1.935 2.85 3.45 5.09 4.719 4.34 2.462 11.23 4.298 21.38 6.386l.02.004c28.14 5.51 45.42 10.787 55.7 18.177 5.05 3.633 8.37 7.757 10.46 12.689 2.1 4.975 3.02 10.92 3.02 18.281 0 16.806-3.53 26.323-12.99 32.035-4.9 2.957-11.58 5.02-20.64 6.328-9.05 1.306-20.31 1.837-34.27 1.837-14.32 0-25.86-.662-35.13-2.277-9.26-1.615-16.09-4.159-21.11-7.808-9.45-6.868-13.25-18.245-13.54-37.615h37.3c.07 3.446.31 6.404.94 8.878.81 3.16 2.29 5.681 4.9 7.473 2.5 1.712 5.8 2.576 9.85 3.052 4.08.48 9.24.597 15.69.597h.01c6.47-.025 11.6-.112 15.63-.408 3.99-.293 7.14-.804 9.53-1.795 2.53-1.049 4.26-2.658 5.25-4.994.9-2.15 1.08-4.721 1.08-7.503 0-2.56-.56-4.947-2.06-7.106-1.47-2.116-3.69-3.794-6.62-5.246-5.75-2.86-15.03-5.21-29.13-8-24.6-4.91-39.4-9.583-48.09-16.2-4.26-3.241-7.04-6.945-8.78-11.434-1.77-4.538-2.52-10-2.52-16.814ZM608.1 3.1a2.5 2.5 0 0 0-2.5 2.5v34.6a2.5 2.5 0 0 0 2.5 2.5h43.4v112.9a2.5 2.5 0 0 0 2.5 2.5h40.4a2.5 2.5 0 0 0 2.5-2.5V42.7h43.9a2.5 2.5 0 0 0 2.5-2.5V5.6a2.5 2.5 0 0 0-2.5-2.5H608.1Zm48.5 37.1a2.5 2.5 0 0 0-2.5-2.5h-43.5V8.1h127.7v29.6h-43.9a2.5 2.5 0 0 0-2.5 2.5v112.9h-35.4V40.902c.065-.223.1-.458.1-.702Zm429.6-37.1a2.5 2.5 0 0 0-2.5 2.5v150a2.5 2.5 0 0 0 2.5 2.5h113.5a2.5 2.5 0 0 0 2.5-2.5V121a2.5 2.5 0 0 0-2.5-2.5h-70.6V5.6h-2.5V3.1h-40.4Zm37.9 117.9V8.1h-35.4v145h108.5v-29.6h-70.6a2.5 2.5 0 0 1-2.5-2.5ZM512.8 2.8c-31.195 0-50.868 3.837-62.702 15.583C438.262 30.129 434.4 49.653 434.4 80.6s3.888 50.471 15.735 62.218c11.847 11.745 31.519 15.582 62.665 15.582s50.818-3.837 62.665-15.582C587.312 131.071 591.2 111.547 591.2 80.6c0-30.947-3.888-50.47-15.735-62.217S543.946 2.8 512.8 2.8Zm-35.1 77.8c0-10.05.213-17.832 1.03-23.86.817-6.033 2.232-10.245 4.586-13.204 2.343-2.943 5.666-4.706 10.442-5.732 4.79-1.028 10.992-1.304 19.042-1.304 8.024 0 14.214.276 19 1.304 4.771 1.026 8.098 2.79 10.447 5.733 2.36 2.959 3.784 7.171 4.609 13.203.825 6.028 1.044 13.81 1.044 23.86 0 10.05-.219 17.832-1.044 23.86-.825 6.032-2.249 10.245-4.609 13.203-2.349 2.944-5.676 4.707-10.447 5.733-4.786 1.028-10.976 1.304-19 1.304s-14.215-.276-19-1.304c-4.771-1.026-8.098-2.789-10.447-5.733-2.36-2.958-3.784-7.171-4.609-13.203-.825-6.028-1.044-13.81-1.044-23.86Z" clip-rule="evenodd" />
  <path fill="currentColor" d="M131.9 5v89c0 25.599 3.313 41.777 13.466 51.511C155.513 155.238 172.357 158.4 199 158.4s43.487-3.162 53.634-12.889C262.787 135.777 266.1 119.599 266.1 94V5h-41.4v89c0 7.024-.169 12.455-.784 16.657-.615 4.205-1.667 7.118-3.386 9.158-1.709 2.029-4.131 3.256-7.623 3.972-3.503.718-8.033.913-13.907.913-5.874 0-10.404-.195-13.907-.913-3.492-.716-5.914-1.943-7.623-3.972-1.719-2.04-2.771-4.953-3.386-9.158-.615-4.202-.784-9.633-.784-16.657V5h-41.4Zm-53.8.1v100.3c0 4.375-.113 7.739-.533 10.334-.419 2.594-1.135 4.358-2.293 5.585-1.155 1.224-2.809 1.977-5.243 2.419-2.44.442-5.606.562-9.731.562-4.175 0-7.391-.12-9.879-.566-2.482-.445-4.181-1.205-5.373-2.443-1.195-1.241-1.941-3.024-2.382-5.644-.44-2.622-.566-6.023-.566-10.447V89.3H.7v15.9c0 21.055 2.94 34.439 11.98 42.51 9.019 8.053 23.98 10.69 47.62 10.69 23.49 0 38.352-2.637 47.309-10.665 8.977-8.046 11.891-21.38 11.891-42.335V5.1H78.1Zm200.4 151.1V5.1h39.038l66.401 82h.461v-82h41.4v151.1h-38.838l-66.6-81.8h-.462v81.8h-41.4Z" />
</svg>
