<svg xmlns="http://www.w3.org/2000/svg" fill="none" viewBox="0 0 321 498">
  <path fill="currentColor" fill-rule="evenodd" d="M236 66.4c1.5.4 2.8.6 4 .6 3.3 0 5.3-1.4 6.4-2.3 2.2-2.1 3.1-5.4 2.3-8.6-.9-3.6-3.7-6.4-7.6-7.5-6-1.8-10.6 1.9-11.9 6.3-1.3 4.3.7 9.7 6.8 11.5Zm6.9-5.5c-1.1 1.1-3.1 1.3-5.5.6-3.3-1-3.9-3.4-3.4-5.4.4-1.5 2.2-3.9 5.7-2.9 2.1.6 3.6 2 4.1 3.9.4 1.5 0 2.9-.9 3.8Z" clip-rule="evenodd" />
  <path fill="currentColor" d="M212.3 76.4c-6.3 0-13.6-1.6-20.3-6.4-1.1-.8-1.4-2.4-.6-3.5.8-1.1 2.4-1.4 3.5-.6 9.977 7.083 20.825 5.813 26.711 4.01l-.011-.01c-1-.9-1.1-2.5-.1-3.5.9-1 2.5-1.1 3.5-.1.674.625 1.435 1.19 2.261 1.697a2.518 2.518 0 0 1 1.382.767c3.34 1.677 7.424 2.557 11.059 2.767a2.447 2.447 0 0 1 2.41.04c1.795-.048 3.384-.278 4.588-.671 1.3-.4 2.7.3 3.2 1.6.4 1.3-.3 2.7-1.6 3.2-.613.123-1.273.245-1.968.356 3.832 3.533 8.142 5.644 11.768 5.644 1.4 0 2.5 1.1 2.5 2.5s-1 2.6-2.4 2.6c-7.071 0-13.882-5.107-18.34-10.328-4.38-.18-9.125-1.238-13.127-3.173-3.242 1.679-8.463 3.101-14.433 3.101Zm32.6-31.1c-6.9 0-12.9-3.1-17.6-9.1-.8-1.1-.6-2.7.4-3.5 1.1-.8 2.7-.6 3.5.4 5.5 7.1 12.8 9 21.7 5.6 1.3-.5 2.7.2 3.2 1.4.5 1.3-.2 2.7-1.4 3.2-3.4 1.4-6.7 2-9.8 2Zm36.1 60.2c-2.4 0-5-1.2-7.2-3.5-4.3-4.4-4.6-10.4-2.8-14.1 1.4-2.7 3.8-4.1 6.6-3.7 1.4.2 2.3 1.5 2.1 2.8-.2 1.4-1.5 2.3-2.8 2.1h-.046c-.236-.008-.795-.025-1.354 1-.9 1.7-.9 5.5 1.9 8.3 1.8 1.9 3.5 2.3 4.3 1.9 1.1-.6 1.9-3.2 1.1-7.7-.2-1.4.7-2.7 2-2.9 1.4-.2 2.7.7 2.9 2 1.7 9.2-2 12.2-3.7 13-.9.6-1.9.8-3 .8Z" />
  <path fill="currentColor" fill-rule="evenodd" d="M188 3c7.795-5.1 15.312-3.81 21.481 3.601 5.13-.45 10.229-.542 15.219-.201 11.9.6 19.8 3.3 23.5 8.1 1 1.4 1.6 2.7 1.8 3.8 14.6-1 27.5 8.2 32.3 23.1 15.7 9.4 21.9 17.5 17.2 39.1a2.643 2.643 0 0 1-.348.975A128.178 128.178 0 0 1 303 94c4.036 15.995 5.093 32.015 4.358 46.464.019.658.001 1.336-.058 2.036a2.415 2.415 0 0 1-.091.499c-.637 9.644-2.062 18.527-3.907 26.153a2.621 2.621 0 0 1-.228.927 116.928 116.928 0 0 1-1.767 6.338c.133.092.264.186.393.283 2.7 2 5.8 6 5.8 13.7 0 6.6-1.8 8.9-3.7 10.7-.9.8-1 1-.6 3.1 1.8 8.1 2.4 14.1-.2 19.1-.6 1.2-.3 2.4.3 4.4l.022.08c.697 2.486 1.557 5.555-.422 8.82l-.9 1.5c-.714 1.322-1.525 2.79-2.424 4.236 2.857 7.003-.274 15.55-5.276 18.664-1.481.871-3.95 2.123-6.744 2.43.583 10.083-2.617 17.563-8.756 19.67-1.122.374-1.457 1.097-2.068 2.415l-.052.113-.08.172c-1 2.4-2.4 4.9-6.6 4.9-.261 0-.537-.007-.825-.024-2.943 13.851-6.507 27.558-10.275 41.224-.262 1.006-.53 2.011-.805 3.014-1.937 10.283 1.771 20.435 9.965 26.28 1.25.03 2.441.169 3.54.406 3.445.756 5.901 2.501 7.014 4.877 4.156 1.319 8.035 4.405 10.986 9.323 6.48 11.053-.751 24.377-10.099 31.405 2.109 1.561 5.014 2.936 8.599 3.995 8 2.4 13.8 7 15.9 12.6 1.012 2.698 1.668 6.746-.487 11.844C313.182 439.38 319.727 452.098 320 463c.2 8.1-3.2 13.8-9.1 15.2-1.1.4-2.3.5-3.5.5-2.651 0-5.302-.675-7.516-2.297-.411 4.345-1.796 9.064-4.784 12.897-3.3 4.3-8.1 6.9-14.1 7.6-.8.2-1.6.3-2.4.3-9.9 0-17.5-7.7-19.8-15.5-2.3-7.8.6-14.7 7.5-18.1 1.2-.6 2.7-.1 3.3 1.1.6 1.2.1 2.7-1.1 3.3-6.7 3.3-5.7 9.7-4.9 12.2 1.9 6.6 8.8 12.8 16.8 11.8 4.6-.6 8.3-2.5 10.8-5.7 3.7-4.7 4.3-11.4 3.7-15.7-1-7.6-6.5-13.6-11.4-18.9-3.3-3.6-6.5-7.1-7.8-10.7-.5-1.3.2-2.7 1.5-3.2s2.7.2 3.2 1.5c.954 2.577 3.548 5.427 6.391 8.55l.409.45.004.004c.393.425.795.858 1.201 1.299.279-1.344.822-2.621 1.695-3.703 1.1-1.4 3.8-3.5 8.8-2.6 3.9.7 7.2 3.9 8.6 8.1 1 3.2.6 6.1-1.2 7.9-.9.9-2.9 2.3-6.4 1.2-1.3-.4-2.1-1.8-1.7-3.1.4-1.3 1.8-2.1 3.1-1.7.8.2 1.3.2 1.4.1.2-.2.5-1.3 0-2.9-.6-1.9-2.2-4.2-4.7-4.7-1.9-.4-3.3-.1-4 .8-1 1.2-1.1 3.8-.2 6 1.7 4 6.3 9.9 12.4 9.9h.2c2.2-.1 3.9-.9 5.1-2.6 1.6-2.2 2.1-5.8 1.1-9a2.338 2.338 0 0 1-.092-.92c-2.607-6.116-7.058-11.345-12.43-12.581l-.078.001c-.4 0-.9-.1-1.3-.4-1.2-.7-1.6-2.2-.9-3.4 2.3-3.8 2.8-7.3 1.6-10.4-1.6-4.1-6.3-7.7-12.7-9.6-5.806-1.767-9.771-4.136-12.312-6.719.081 2.17.446 4.32 1.112 6.319 1.6 4.6 5.4 10.5 14.5 12.7 1.3.3 2.2 1.7 1.9 3-.2 1.2-1.2 2-2.4 2-.2 0-.4 0-.6-.1-8.9-2.1-15.3-7.7-18.1-15.9-1.923-5.703-1.867-12.241-.095-17.866.048-.35.113-.695.195-1.034.094-.407.296-.775.569-1.076.839-2.038 1.921-3.911 3.231-5.524.9-1.1 2.4-1.2 3.5-.4 1.1.9 1.2 2.4.4 3.5-1.316 1.637-2.343 3.644-3.056 5.844-.026.9.176 1.793.592 2.664 6.913-5.298 12.835-14.099 9.964-22.808-5.3-11.7-16.7-13.1-24.2-2.3-2.9 4.2-4.1 9.5-4 14.6 0 1.8.2 3.5.5 5.3.2 1.1-.6 2.1-1.7 2.3-.9 0-1.8-.6-2.1-1.5-2.1-7.9-1.4-16.7 3.2-23.6 3.243-4.827 7.411-7.877 11.78-9.079-5.059-.785-12.043 1.224-16.28 6.779-5.4 7.1-6.9 18.1-4 28.6 2.24 7.942 6.692 14.733 12.762 19.62-3.013-7.077-2.629-13.816-2.562-14.22.1-1.4 1.3-2.4 2.7-2.3 1.4.1 2.4 1.3 2.3 2.7l-.001.022c-.024.595-.512 12.677 7.845 19.747.03.024.06.049.089.075l.067.056c1.1.9 1.2 2.5.3 3.5-.4.6-1.1.9-1.9.9-.43 0-.808-.103-1.172-.308a41.779 41.779 0 0 1-11.853-7.206c-3.579 18.957 2.704 30.322 19.525 35.614h.1c7.2 2.6 11.5 7.8 11.8 14 .2 5.5-2.8 10.7-7.6 12.8-1.1.6-2.4.9-3.6.9-2.1 0-4.2-.7-6.1-2.2-3.2-2.4-4.9-6.3-4.3-9.7.3-1.8 1.5-5 6.2-6.6 1.3-.4 2.7.3 3.2 1.6.4 1.3-.3 2.7-1.6 3.2-1.7.6-2.7 1.5-2.9 2.7-.3 1.5.8 3.6 2.4 4.9.9.7 2.7 1.7 4.6.8 2.9-1.3 4.8-4.6 4.6-8.1-.1-2.4-1.3-6.9-8.4-9.5-20.127-6.476-27.646-21.491-22.16-44.648-4.144-4.782-7.242-10.537-9.04-16.952-2.858-10.087-1.971-20.668 2.126-28.715a2.872 2.872 0 0 1-.026-.385l.001-.035.005-.139v-.015c.028-.829.141-4.267.192-8.25-3.765 7.877-8.211 15.418-13.498 22.439-8.2 11.2-18.3 20.9-29.9 28.6-11.6 7.6-24.5 13-38.1 16-1.1.2-2.1-.5-2.3-1.6-.3-1 .3-1.9 1.3-2.2 48.6-12.7 77.9-50.9 89.5-98.3 3.891-14.156 7.558-28.493 10.546-42.919a2.27 2.27 0 0 1 .135-.653A410.679 410.679 0 0 0 268.3 266.3c.7-4.9 1.1-9.9 1.1-14.9-.1-6.9 1.9-14.1 3.9-20.6 3.4-12.7 2.3-26.5 1.1-39.5-.319-2.814-.781-5.611-1.435-8.347a2.49 2.49 0 0 1-.295-1.177c-1.636-6.26-4.327-12.165-8.67-17.176l-.084-.096-.15-.169-.346-.389c-1.647-1.518-3.248-3.217-4.82-4.946a2.45 2.45 0 0 1-.25-.328c-.414-.396-.83-.787-1.25-1.172-1-.9-1.1-2.5-.1-3.5.9-1 2.5-1.1 3.5-.1a100.728 100.728 0 0 1 6.403 6.497c4.725 4.299 7.871 5.127 11.197 3.503 2.8-1.4 12.4-5.4 15.9 1.3.6 1.2.2 2.7-1 3.4-1.2.6-2.7.2-3.4-1-.9-1.7-4.6-1.3-9.2.9-2 .8-3.7 1.2-5.4 1.2-.55 0-1.093-.042-1.631-.123 1.801 3.43 3.174 7.088 4.192 10.841 6.543 4.583 8.917 3.417 10.739 1.882 1-.9 2.6-.8 3.5.2.9 1 .8 2.6-.2 3.5-2.2 1.8-4.4 2.6-6.6 2.6-2.047 0-4.069-.629-6.01-1.564.201 1.221.371 2.444.51 3.664l.152 1.623c3.037 2.835 5.928 5.372 7.548 5.277.2 0 .8 0 1.8-1.2 1.4-1.6 2.4-3.3 3.4-5l.043-.074c1.783-3.071 3.384-5.829 6.757-6.226 1.4-.1 2.6.9 2.7 2.3.1 1.4-.9 2.6-2.3 2.7-.8.1-1.9 2-2.9 3.8-1 1.8-2.2 3.8-3.9 5.8-1.6 1.8-3.4 2.8-5.3 2.9-.2-.1-.3-.1-.4-.1-2.282 0-4.444-1.206-6.842-3.108.405 5.372.645 10.769.445 16.128 1.656 1.022 3.008 1.523 4.178 1.783a2.66 2.66 0 0 1 .419-.003c3.2.3 6.3-1.2 8.2-3.8.8-1.1 2.4-1.4 3.5-.6 1.1.8 1.4 2.4.6 3.5a13.771 13.771 0 0 1-4.436 4.032c.257.369.503.789.736 1.268 2.7 4.9 2.5 7.4 2.4 8.1l-4.9-.8v.2s0-1.6-1.9-5.2c-.589-1.178-.793-1.2-2.598-1.389l-.102-.011c-1.577-.15-3.719-.357-6.467-1.595a73.79 73.79 0 0 1-.716 5.271c6.857 3.695 8.27 10.26 9.183 14.824l.061.286c.304 1.429.772 3.627 1.239 3.814.5.3 2.2-.2 7.6-9.5.3-.6.6-1.1.9-1.5.8-1.4.5-2.7-.1-5-.7-2.3-1.5-5.1.1-8.1 1.9-3.7 1.3-8.8-.2-15.8-1-4.5.3-6.2 2-7.8 1.1-1 2.2-2.1 2.2-7.1 0-4.5-1.3-7.8-3.9-9.7-2-1.5-4.6-2-7-1.3-1.3.4-2.7-.4-3.1-1.7-.4-1.3.4-2.7 1.7-3.1a13.207 13.207 0 0 1 6.482-.156 113.72 113.72 0 0 0 1.484-5.381c-.31-2.987-.891-5.972-1.566-8.863-2-9.2-5.2-18-9.5-26.4-14-27.9-39.2-44.4-70-48.1-32.8-4.8-66.8 1.9-95.7 18.2-11.1 6.1-21.5 13.3-31.2 21.5-9.192 7.676-17.665 16.25-26.101 24.785L62.8 151.6c-.8.8-2 .8-2.8.1-.7-.9-.7-2.1-.1-2.9 9.857-11.982 21.09-22.962 33.389-32.494A8.887 8.887 0 0 1 91 116.6c-1.1 0-2.2-.2-3.4-.6a11.07 11.07 0 0 1-4.087-2.733c-1.637 1.015-2.003 2.8-2.513 6.033l-.036.232c-.49 3.141-1.034 6.635-3.864 9.368-1.8 1.7-3.8 2.7-5.9 2.7-1 0-2-.2-2.9-.7a7.14 7.14 0 0 1-3.875-5.392A44.6 44.6 0 0 0 63.6 127c-.6 1.2-2.2 1.7-3.4 1.1-1.2-.6-1.7-2.2-1.1-3.4 1.303-2.497 3.201-5.534 5.639-8.977a43.635 43.635 0 0 1-.356-2.766c-8.706 8.205-14.036 28.504-15.683 38.843-.858 5.435-3.626 10.962-6.309 16.319v.001l-.391.78c-2.301 4.526-4.661 9.169-5.184 12.666a22 22 0 0 1 3.084-.866c1.4-.3 2.7.6 2.9 2 .3 1.4-.6 2.7-2 2.9-4.6.9-8.6 3.7-10.9 7.5-2.4 3.9-2.9 8.5-1.6 13.4.2.8.1 1.6-.4 2.2-5.2 6.8-6.7 14.5-4 19.6.365.687.697 1.222 1.019 1.635.095.049.189.104.281.165.336.224.602.503.792.815.814.452 1.705.348 3.008.185l.088-.01c2.597-.301 6.353-.735 10.012 4.11.8 1.1.6 2.7-.5 3.5l-.064.022-.049.017c-.305.105-.757.261-1.287.261-.8 0-1.5-.3-2-1-1.97-2.561-3.164-2.405-5.398-2.113l-.102.013-.17.019c-1.36.153-3.047.342-4.8-.282-3.803 7.615-3.332 18.408 4.17 24.263 1.1.8 1.3 2.4.4 3.5-.4.6-1.1.9-1.9.9-.5 0-1.1-.2-1.5-.5-1.677-1.298-3.17-2.902-4.424-4.737.036 1.375.342 2.823.924 4.237 2.2 5.2 7.3 8.8 14.2 9.8 6.395.662 10.736-3.431 12.668-5.766-2.254-2.362-4.615-5.077-5.957-8.979-.974.066-1.843.297-2.711.545-3.9 1-7.2 1.2-12.3-4.6-.9-1-.8-2.6.2-3.5 1-.9 2.6-.8 3.5.2 3.5 4 4.8 3.7 7.3 3.1l.165-.04c2.484-.598 5.849-1.408 10.935.94 8.892 3.597 14.29-.293 21.082-5.187l.018-.013c.6-.45 1.2-.875 1.8-1.3.422-.299.843-.597 1.264-.904.73-1.119 2.269-1.472 3.336-.696.985.575 1.431 1.756 1.116 2.77a2.544 2.544 0 0 1-.729 1.415c-.771 1.604-1.788 4.496-.787 6.415.396.792.98 1.521 1.553 2.237l.001.001c.15.188.3.375.446.562 1.9 2.3 4.4 5.4 1.9 10.1-1.3 2.9-3.6 3.5-5.9 3.5-1.3 0-2.5-.2-3.7-.4l-.35-.051-.1-.014c-1.96-.286-3.964-.578-5.45.165-1.2.6-2.7.1-3.3-1.2-.6-1.2-.1-2.7 1.2-3.3 2.988-1.394 6.174-.904 8.768-.505l.032.005c3.3.5 4 .5 4.5-.4.9-1.7.6-2.3-1.4-4.7-.8-1-1.7-2.2-2.5-3.6-.775-1.44-1.052-2.965-1.039-4.431-4.434 3.055-9.163 5.831-15.061 5.831-2.31 0-4.777-.395-7.543-1.394 1.155 1.791 2.6 3.292 4.043 4.794l.183.19.017.01c.441.257.774.623.984 1.042 2.164 2.313 4.108 4.769 4.616 8.158.5 3.2 4.3 9.5 10.4 13 4.464 2.551 9.094 3.027 13.814 1.428-.01-.72-.014-1.43-.014-2.128 0-2 0-3.8.1-5.9.1-1.4 1.3-2.4 2.7-2.3 1.4.1 2.4 1.3 2.3 2.7-.1 1.7-.1 3.7-.1 5.5.1 5.4.4 11.6.7 17l.084 1.025c1.17 14.389 2.39 29.375 9.716 41.975 5.2 8.7 13.4 15.2 21.5 21.1 9.9 7 21.4 11.2 33.2 13.9 14.6 3.3 29.8 4.5 45 5.6 1.1.1 2 1 1.9 2.1-.1 1.1-1.1 2-2.2 1.9-30.6-1.3-63.5-3.8-87.8-24.7-6-4.9-12-10.5-16-17.3-4.252-7.228-6.64-15.219-8.108-23.431-4.962 7.49-4.906 14.673.108 23.531.36.616.718 1.23 1.077 1.842 1.475 2.518 2.931 5.004 4.261 7.516.24.281.417.614.511.981 3.477 6.767 5.947 13.792 5.351 22.261 0 1.1-.9 2-2 2s-2-.9-2-2a42.086 42.086 0 0 0-2.084-11.651c-.292 7.773.193 15.56 1.153 23.277.101.208.18.434.231.674.185 1.154.285 2.267.312 3.344.49 3.371 1.06 6.725 1.688 10.056 3.4 15.3 10.4 29.8 19.2 42.7 5.9 8.6 13 16.4 21.1 23.1.9.7 1 2 .3 2.8-.7.8-1.9 1-2.7.3-13.1-9.9-23.5-23-31.2-37.4a123.76 123.76 0 0 1-11.237-29.001A98.749 98.749 0 0 1 88.7 414c-2.4 4.9-4.8 10-5.2 16.7-.751 13.054-10.145 16.406-11.618 16.932-.095.034-.158.056-.182.068-.3.2-.5.2-.7.2-1.1 0-2.1-.7-2.4-1.9-.4-1.3.4-2.7 1.8-3.1l.026-.008c.556-.178 7.486-2.394 8.074-12.392.4-7.8 3.2-13.6 5.7-18.7l.07-.146c2.32-4.809 4.396-9.115 4.19-14.383a623.706 623.706 0 0 1-.66-4.971c-1.457-10.489-1.499-21.072-.218-31.566-.744-1.31-1.529-2.619-2.318-3.935l-.001-.002-.002-.003v-.001l-.002-.002c-3.416-5.696-6.912-11.524-7.559-18.191-.856-7.512 2.99-14.573 7.842-20.063-.613-4.959-.993-9.944-1.342-14.837l-.029-.529c-1.51 3.621-3.976 6.841-8.871 10.029-3.7 2.4-6.3 6.5-9 10.8-3.2 5-6.6 10.2-12.1 13.9-9.7 6.5-11.4 8.8-11 15.5.124 1.803 1.33 4.185 2.49 6.066 2.34-2.435 5.257-4.642 8.61-6.166 6.3-2.9 13-2.8 19.2.3 1.2.6 1.7 2.1 1.1 3.3-.6 1.2-2.1 1.8-3.3 1.1-4.9-2.4-9.9-2.5-14.9-.2-3.37 1.516-6.328 4.01-8.453 6.631a2.334 2.334 0 0 1-.925 1.223c-1.162 1.653-1.97 3.305-2.322 4.746-1.1 4.2-.6 8.5 1.4 10.5.912.982 2.169 1.472 3.77 1.505.23-.069.475-.105.73-.105.25 0 .499.006.746.019.245-.032.496-.071.754-.119.413-.095.805-.18 1.18-.262.808-.175 1.537-.333 2.22-.538 7.7-1.8 10.7-1.5 17 9.3.7 1.2.3 2.7-.9 3.4-.5.2-.9.3-1.4.3-.9 0-1.7-.4-2.2-1.2-3.825-6.503-5.134-7.914-8.135-7.591A12.342 12.342 0 0 1 63.1 389.8c1.7 3.8 1.2 7.8-1.4 10.8-1.784 2.082-4.944 3.574-8.506 5.255l-.094.045c-4.6 2.2-9.8 4.7-11 8-.319.829-.353 1.74-.102 2.757 1.26-1.16 2.777-2.243 4.602-3.257 5.4-2.9 10.5-6.2 15.4-9.8 1.1-.8 2.7-.6 3.5.5.8 1.1.6 2.7-.5 3.5-5 3.8-10.4 7.2-16 10.2-5.562 3.052-7.351 6.84-7.927 12.769 3.534-3.444 8.115-5.553 11.502-7.112l.125-.057c3.6-1.5 6.5-4 8.6-7.2.7-1.2 2.3-1.5 3.5-.8 1.2.7 1.5 2.3.8 3.5-2.6 4.1-6.3 7.2-10.8 9.1-7.3 3.3-13.9 7-14 15.1a2.518 2.518 0 0 1-.024.202c-.136 4.542-.95 9.671-4.676 12.598-2.8 2.2-6.6 2.8-11.5 1.8-5.5-1.2-10.8-.2-14.4 2.7-3.3 2.7-5.1 6.9-5.1 12.2 0 11.8 7.3 14.3 13.4 14.3 5.5 0 12-3.4 12-13.1 0-2.6-.7-4.5-2.2-5.8-2.837-2.553-7.73-2.066-8.339-2.006a1.008 1.008 0 0 1-.061.006h-.2c-4.2.2-6.3 3.9-6.2 7.3 0 1.5.7 5.1 5.4 5.1 1.2 0 2-.3 2.6-.9 1.1-1.2 1.3-3.3 1.2-4-.1-1.4 1-2.5 2.4-2.6 1.4-.1 2.5 1 2.6 2.3l.001.095c.011.807.067 4.842-2.601 7.605-1.5 1.6-3.7 2.5-6.3 2.5-7 0-10.2-5-10.4-9.9-.2-5.8 3.8-12 10.9-12.4.736-.082 5.42-.498 9.565 1.488A2.15 2.15 0 0 1 30 463c2.1 1.3 5 1.4 7.8.4 2-.8 3.6-2.1 4-3.4a2.51 2.51 0 0 1 .107-.285C43.22 453.586 46.902 445.303 57 440.7c7.9-3.6 12.3-7.1 13.5-10.7.343-.98.446-2.008.309-3.096-1.454 1.769-3.377 3.582-6.009 5.396-.4.3-.9.4-1.4.4-.8 0-1.6-.4-2.1-1.1-.8-1.1-.5-2.7.6-3.5 6.051-4.167 7.477-8.038 8.867-11.809l.033-.091c1.3-3.7 2.7-7.6 8.4-10 1.3-.5 2.7 0 3.3 1.3.5 1.3 0 2.7-1.3 3.3-3.7 1.6-4.5 3.7-5.7 7.2l-.052.143c-.361.987-.742 2.03-1.217 3.116 1.787 3.609 2.143 7.12 1.069 10.441-1.7 5-6.9 9.3-16.2 13.6-11.6 5.3-12.9 16.4-12.9 21 0 15.2 12.4 16.3 16.2 16.3 3.6 0 6.3-1 8.3-3 1.551-1.609 2.673-3.844 3.31-6.688.002-.331.069-.662.194-.976.332-1.874.468-3.987.396-6.336v-.5c0-2.9-.8-5.1-2.5-6.6-2.2-2-6.1-2.8-10.3-2.3-4.5.6-6.9 5.5-6.6 10 .1 1.5.7 6.2 5.4 6.2 2.2 0 3.7-.6 4.6-1.7 1-1.2 1.1-3.2.5-5.6-.3-1.3.5-2.7 1.8-3 1.3-.3 2.7.5 3 1.8 1 3.9.5 7.4-1.4 9.9-1.3 1.7-3.8 3.6-8.6 3.6-5.8 0-10-4.4-10.4-10.9-.6-9 5.3-14.5 11-15.2 2.067-.23 6.537-.518 10.673 1.244 9.862-3.206 12.839-8.494 14.827-17.144.3-1.3 1.6-2.2 3-1.9 1.3.3 2.2 1.6 1.9 3-1.97 8.779-5.386 15.551-14.845 19.599 1.963 2.363 2.945 5.417 2.945 9.101v.4c.02.617.041 1.483.012 2.52 4.764-3.301 8.43-8.004 9.688-13.82.164-.545.268-1.12.377-1.725.091-.504.187-1.029.323-1.575.3-1.4 1.6-2.2 2.9-2 .8.2 1.5.8 1.8 1.6 1.9 5.7 4.5 11.2 7.7 16.4 1.1 1.7 2.2 3.4 3.4 5 .7.8.7 2.1-.2 2.8-.9.7-2.1.7-2.8-.2a52.898 52.898 0 0 1-10.173-14.971c-2.675 6.306-7.495 11.349-13.795 14.699-.728 3.05-2.095 6.289-4.632 8.872-2.9 2.8-6.9 4.3-11.8 4.3-9.7 0-14.8-4.5-17.4-8.2-3.038-4.427-3.665-9.381-3.778-12.051A16.47 16.47 0 0 1 39.6 468c-1.62.63-3.32.936-4.956.991.504 1.442.756 3.048.756 4.809 0 12.4-8.8 18.1-17 18.1-11.5 0-18.4-7.2-18.4-19.3 0-8.6 3.8-13.5 7-16.1 4.8-3.9 11.5-5.2 18.6-3.7 3.3.7 5.8.4 7.4-.8 1.664-1.401 2.561-4.107 2.758-8.452A2.585 2.585 0 0 1 35.7 443c.005-.623.04-1.227.1-1.812v-.588c0-7.976 0-14.244 2.613-19.287a2.308 2.308 0 0 1-.313-.513c-1.5-3-1.7-5.8-.8-8.5 1.9-5.3 8.1-8.3 13.6-10.9l.486-.234c2.743-1.322 5.475-2.639 6.514-3.866 1.3-1.5 1.5-3.5.6-5.4-.93-1.955-3.248-4.256-7.032-4.565-4.591.481-7.442-1.309-9.068-2.935-3.2-3.4-4.2-9.2-2.6-15.3.444-1.648 1.29-3.487 2.482-5.341-1.532-2.207-4.062-6.321-4.282-10.059-.5-9.7 3.4-13.4 13.2-19.9.478-.315.938-.648 1.382-.996-9.063-2.414-12.1-7.636-14.082-16.104-.77-3.045-1.467-5.392-2.334-7.602a7.476 7.476 0 0 1-.366-.898l-.003-.01c-1.58-3.753-3.765-7.332-7.797-13.59-1-1.6-2-3.1-2.9-4.4-4.975-7.363-7.87-11.756-4.058-19.779A19.54 19.54 0 0 1 17.8 265.2c-1.916-4.561-1.751-9.538.418-13.185-1.674-5.998-1.197-13.006 2.503-19.598A15.722 15.722 0 0 1 19.6 230.6c-3.5-6.5-2.1-15.9 3.7-24-1.3-5.7-.5-11.4 2.4-16.1a21.467 21.467 0 0 1 6.048-6.324c-.5-5.069 2.546-11.154 5.752-17.476 2.7-5.2 5.5-10.7 6.3-15.6.6-3.6 6.1-35.4 20.5-44.3l.026-.015.033-.018c.259-2.742.92-5.687 2.241-8.767 3-6.9 8.8-13.3 18-19.8.05-.036.1-.07.15-.1 2.043-7.508 8.16-11.854 13.13-15.386l.02-.014.553-.398c2.284-1.64 4.366-3.136 5.847-4.802 2.6-3.1 5.2-7 7.7-10.8l.116-.178C118.08 37.377 124.255 27.907 132.8 29c3.2-3.9 7.1-6.3 10.7-8.4 2.2-1.3 4.3-2.6 5.7-4 4.6-4.7 12.3-8.5 19.6-5 4.795-3.932 9.038-5.105 12.553-6.076h.002l.445-.124c2.4-.6 4.4-1.2 6.2-2.4ZM89.45 87.113c-1.919-10.985 4.542-15.575 11.329-20.398l.021-.015c2.8-1.9 5.4-3.8 7.3-6 2.687-3.058 5.117-6.802 7.527-10.518l.573-.882c5.6-8.7 10.9-16.9 16.9-15.2.175.048.351.078.524.09-3.895 2.56-7.124 4.985-9.524 7.11-1 .9-1.1 2.5-.2 3.5.9 1 2.5 1.1 3.5.2 15.2-13.4 60.6-36.1 97-33.6 13.4.6 18.1 4 19.7 6 1.4 1.7 1.2 3.2 1.2 3.2-.2.9 0 1.7.6 2.3.6.6 1.4.9 2.2.8 13.7-2.1 25.6 6 29.8 20.2.1.6.6 1.1 1.1 1.4 12.597 7.452 18.583 12.778 16.773 27.918C287.105 54.213 271.85 35.15 245 26.2h-.1c-45.1-13-89.8 9.3-119.3 30.3-13.635 9.694-25.895 20.39-36.15 30.613Zm78.396-70.26c-12.132 4.697-23.057 10.329-31.457 15.568 2.574-3.401 6.137-5.555 9.611-7.621 2.5-1.5 4.9-3 6.7-4.8 3.6-3.7 9.7-6.7 14.9-3.3.08.056.162.107.246.153Zm35.335-9.528c-10.579 1.497-21.157 4.366-31.062 7.932 3.957-3.235 7.413-4.144 10.785-5.032L183 10.2c2.6-.7 5.2-1.4 7.7-3 4.561-2.988 8.689-2.946 12.481.125Zm111.655 458.808c-2.082 2.373-5.007 3.677-8.336 3.767.1.1 0 .1-.2.1-2.175 0-4.17-.475-5.975-1.26 1.165 3.141 3.773 5.834 9.475 4.66 3.531-.793 4.673-4.338 5.036-7.267Zm-63.083-111.839c.218 3.679.189 8.901.114 13.062 2.82-2.655 6.12-4.36 9.415-5.29-3.61-3.664-6.182-8.152-7.574-13.062a181.933 181.933 0 0 1-1.955 5.29Zm50.273-235.972c.31 3.56.493 7.078.563 10.534-1.156-1.406-2.378-2.645-3.489-3.756-1.5-1.5-2.8-2.9-3.5-4.1-.8-1.4-.8-2.8.1-3.9 1-1.3 3.1-2.1 4.5-1.7.4.1 1.4.4 1.7 2.4.026.181.069.356.126.522ZM298.2 95.3a144.35 144.35 0 0 1 2.955 15.284c-3.306-.752-7.155.741-9.355 3.516-2.2 2.7-2.4 6.2-.6 9.4 1 1.8 2.6 3.5 4.3 5.2 3.6 3.6 7.4 7.4 6.8 13.4a2.696 2.696 0 0 0-.003.336 159.106 159.106 0 0 1-1.402 13.303A112.193 112.193 0 0 0 291.8 131.4c-2.959-5.919-6.35-11.318-10.136-16.205 2.571-.078 5.067-.972 7.836-2.595 6.6-4.8 10.6-15.6 5.7-25.4-5.446-10.99-13.244-11.59-22.23-12.28l-.27-.02-.3-.019c-1.512-.094-3.112-.194-4.8-.381-5-.5-8.6-3.1-10.3-7.4-1.6-4.3-.9-9.5 1.7-12.5 1.8-2.1 4.2-2.7 7.1-2 4 1.1 6.7 3.4 7.6 6.6.7 2.5.1 5.3-1.4 6.8-.9.9-2 1.1-3.3.8-1.7-.5-3.7-1.5-3.8-3.6-.1-1.2.6-2.2.9-2.4 1.3.3 2.5-.5 2.9-1.8.3-1.4-.5-2.7-1.8-3.1-1.7-.5-3.5 0-4.9 1.4-1.9 1.9-2.7 5.1-2 7.8.5 1.9 2 5.1 7.2 6.5 3 .9 5.9.1 8.1-2.1 2.7-2.8 3.8-7.4 2.6-11.7-1.4-5-5.4-8.6-11.2-10.1-4.7-1.2-9 0-12.1 3.5-3.9 4.4-4.9 11.7-2.6 17.7 2.3 6 7.5 9.9 14.4 10.6 1.9.2 3.6.3 5.299.4 8.8.6 14.101 1 18.301 9.5 3.7 7.3.7 15.6-4.1 19.1-3.585 2.574-7.424 2.275-11.05-.82a80.594 80.594 0 0 0-.766-.78 2.593 2.593 0 0 0-.284-.3l-.118-.101a85.823 85.823 0 0 0-1.871-1.803c-6.682-7.192-4.903-14.729-4.811-15.096.3-1.4-.5-2.7-1.8-3.1-1.4-.3-2.7.5-3.1 1.8l-.012.057c-.117.538-.867 3.996.094 8.547-13.953-9.729-30.702-15.34-49.382-17.004-41.213-4.918-81.034 8.395-113.947 32.03 1.412-2.101 1.853-4.44 1.147-6.63-.9-2.6-3.2-4.4-5.7-4.6-2.5-.1-4.7 1.3-5.9 3.8-.6 1.2 0 2.7 1.2 3.3 1.2.6 2.7 0 3.3-1.2.1-.4.5-1 1-1 .4.1 1 .5 1.2 1.2.4 1.2-.3 2.5-1.8 3.8-1.6 1.3-3.2 1.1-4.3.7-2-.8-3.6-2.7-3.9-4.8-.3-2.3.7-4.6 3.1-6.5 2.87-2.276 8.186-2.104 14.304-1.906l.196.006c7.518.293 15.989.586 23.366-3.496l.234-.104c.229-.106.436-.236.619-.387 11.283-6.66 15.511-15.527 15.95-16.448l.031-.065c.5-1.3 0-2.7-1.3-3.3-1.3-.5-2.7 0-3.3 1.3 0 .1-3.678 8.252-14.107 14.346-5.946 2.522-10.404-.17-12.293-4.046-1.9-3.9-1.2-9.6 4.8-12.8 4.1-2.2 7.5-.7 9 1.7 1.3 2 1.6 5.3-1.8 7.8-1.1.8-2.1 1-2.8.7-.5-.2-.8-.9-.8-1.5s.3-1.1 1-1.4c1.3-.6 1.8-2 1.2-3.3-.6-1.3-2.1-1.8-3.3-1.2-2.4 1.1-3.8 3.3-3.9 5.8 0 2.5 1.3 4.9 3.5 6 2.4 1.2 5.3.9 8.1-1.1 5.7-4.3 5.6-10.5 3.1-14.5-1.924-3.107-5.709-5.449-10.342-4.998A260.19 260.19 0 0 1 128.7 60.6c5.822-4.153 12.245-8.356 19.148-12.311a21.139 21.139 0 0 0-1.148 2.31c-2.8 6.8-1.7 14.7 2.9 20.601 4.1 5.3 10.4 8.2 17.5 8.2.441 0 .882-.012 1.315-.023.844-.022 1.658-.043 2.385.023 11.8-1.7 16.8-11.3 15.6-19.9-1.1-7.9-7.6-15.2-17.9-13.8-6.4.9-11.2 4.2-13.1 9-1.6 4.1-.9 8.7 1.9 12.1 3 3.5 7.6 5.1 12.8 4.2 3.7-.3 6.6-2.5 7.8-5.8 1.2-3.4.4-7.3-2-9.6-2.1-2.1-5.3-2.6-8.5-1.3-1.3.5-1.9 1.9-1.4 3.2.5 1.3 1.9 1.9 3.2 1.4 1.4-.6 2.5-.5 3.2.2.9.9 1.2 2.8.7 4.3-.4 1-1.3 2.3-3.6 2.5h-.2c-3.4.6-6.3-.3-8.1-2.5-1.6-2-2.1-4.8-1.1-7.2 1.2-3.1 4.5-5.2 9.1-5.8 7.4-1.1 11.5 4 12.3 9.5.8 6-2.4 13-11.4 14.3-7 1-13.1-1.2-16.8-6-3.5-4.5-4.3-10.5-2.2-15.7 2.5-6.1 8.7-10.1 17.4-11.2 11.317-1.49 15.243 4.315 19.8 11.052l.1.148.04.06c4.49 6.684 9.497 14.14 21.86 13.94 8.4-.1 17.8-8.4 17.7-20-.1-6.9-4.4-14.3-16.2-14.3-6.3 0-11.4 2.7-14 7.4-2.3 4.2-2.2 9.4.2 13.3 2.3 3.7 6.4 5.7 11.2 5.4 4-.1 7.3-2 8.9-5.5 1.6-3.3 1.2-7.4-.9-9.9-1.8-2.1-4.5-2.9-7.5-2.1-1.4.4-2.2 1.7-1.8 3.1.4 1.4 1.8 2.2 3.1 1.8 1.533-.383 2.148.243 2.373.472l.027.028c.8 1 .9 2.9.2 4.5-.6 1.2-1.8 2.6-4.5 2.6h-.1c-3.8.2-5.8-1.5-6.7-3-1.4-2.3-1.5-5.6 0-8.2 1.8-3.2 5.2-4.9 9.7-4.9 9.7 0 11.2 5.9 11.2 9.4.1 8.5-6.7 14.9-12.8 15-9.6.1-13.3-5.4-17.6-11.8l-.069-.102c-4.181-6.185-8.847-13.087-19.594-13.53 21.73-8.334 46.08-12.167 70.463-5.168 34.6 11.6 48.8 41.4 54.6 64.3ZM69.408 117.956a12.292 12.292 0 0 1 1.792-.556c1.3-.3 2.7.5 3 1.9.3 1.3-.5 2.7-1.9 3-1.8.4-2.9 1.2-3 2.2-.1.7.4 1.6 1.1 1.9 1.2.6 2.4-.4 3.1-1.1 1.7-1.7 2.1-4.2 2.5-6.8l.014-.091c.52-3.293 1.142-7.236 4.893-9.446a11.19 11.19 0 0 1-.407-1.563 10.701 10.701 0 0 1-.053-3.143c-4.387 5.003-8.104 9.652-11.039 13.699Zm37.509-40.08a296.78 296.78 0 0 0-16.8 15.935c3.633-.985 7.939-.86 12.476-.729l.607.018c2.819.12 5.784.242 8.732.101A14.584 14.584 0 0 1 107.8 88.1c-1.484-3.067-1.891-6.745-.883-10.225ZM78.3 294.5c1.02 0 2.04-.074 3.054-.222-1.454 6.922-2.51 10.557-8.954 14.822-4.551 2.968-7.536 7.601-10.408 12.057l-.092.143-.4.613c-1.464 2.251-2.947 4.529-4.645 6.614l-.06-.012c-.032-.005-.063-.011-.095-.015-9.1-1.5-11.4-5.1-13.3-13-.105-.427-.21-.841-.314-1.244.52.14 1.06.256 1.614.344.9.1 1.8.2 2.7.2 3.9 0 8.3-1.3 10.7-4.6 3.4-4.6 8.1-6.5 11-6.5 1.4.1 2.6-1 2.6-2.4.1-1.4-1-2.6-2.4-2.6-4.3-.1-10.6 2.5-15.1 8.5-1.5 2-5.2 3.1-8.7 2.5-2.231-.357-3.984-1.351-4.691-2.627-1.305-3.275-2.967-6.304-5.585-10.539.745.2 1.505.356 2.276.466.8.1 1.7.2 2.6.2 5 0 10-1.9 14-5.5 1.1-.9 1.2-2.5.3-3.5-.9-1.1-2.5-1.2-3.5-.3-3.7 3.2-8.3 4.7-12.7 4.1-4.2-.6-7.9-3.1-10.5-7l-.01-.014c-3.196-4.861-4.242-7.205-2.755-11.079 3.047 2.114 6.768 3.559 10.965 4.193h.1c.7.1 1.4.1 2 .1 7.14 0 12.054-4.186 14.623-7.12.96 1.235 1.648 2.445 1.877 3.82.7 4.9 5.8 12.5 12.9 16.6 3.5 2 7.2 3 10.9 3Zm206.601-36.138.052.014c.249.01.488.058.713.139 2.437.299 4.975-1.097 6.034-1.715 2.417-1.538 4.19-5.544 3.984-9.345-1.646 1.642-3.453 2.745-5.384 2.745-.8 0-1.6-.2-2.5-.6-2.518-1.259-3.16-4.205-3.834-7.296L283.9 242c-.742-3.712-1.621-7.901-5.386-10.601l-.081.307-.133.494-.268.93c-1.798 6.229-3.432 11.891-3.432 18.37 0 5.2-.4 10.4-1.1 15.5a384.342 384.342 0 0 1-3.292 18.674c.945-.089 1.21-.677 1.738-1.855l.054-.119c.7-1.7 1.8-4.3 5.1-5.4 3.944-1.408 6.036-7.401 5.366-15.495-3.026-1.206-5.254-3.841-6.766-7.905-.5-1.3.2-2.7 1.5-3.2s2.7.2 3.2 1.5c1 2.8 2.5 4.5 4.3 5.1a8.433 8.433 0 0 0 .201.062ZM69.297 109.621c4.325-5.52 9.69-11.72 15.925-18.204-.665-2.383-1.027-4.569-1.136-6.58-11.373 8.909-14.799 16.697-14.789 24.784Z" clip-rule="evenodd" />
  <path fill="currentColor" fill-rule="evenodd" d="M227.4 274.2c0 2.7-1.2 5.7-3.7 6.8a.114.114 0 0 0-.087.037c-.005.005-.008.008-.01.007-.001 0-.002-.002-.002-.006l-.001-.004V281c-1 .5-1.4 1.7-.9 2.7.5 1 1.7 1.4 2.7.9 4.1-1.6 6.4-6 6.6-10.2 0-4.538-2.85-7.967-6.296-10.358-.164-6.006-.455-12.131-.744-18.213v-.003c-.219-4.622-.438-9.22-.599-13.722 6.445-.628 10.174.68 18.239 3.996 5.6 2.2 9.9 3.6 13.8 3.6 2.191 0 4.251-.461 6.393-1.33.288.402.645.838 1.107 1.33.5.5 1.1.8 1.8.8.6 0 1.2-.3 1.7-.6 1-.9 1-2.5.1-3.5s-1.1-1.4-1.4-2.2c-.8-1.9-1.8-3.9-6-8.4-10.837-11.692-27.275-7.842-35.917-1.249-.018-.902-.034-1.805-.046-2.709 9.271-6.687 25.733-11.636 34.463-2.042.9 1.1 2.5 1.1 3.5.2 1.1-.9 1.1-2.5.2-3.5-10.032-11.087-26.954-7.463-38.164-.641.014-.821.035-1.641.064-2.459l.05-.343.049-.322.051-.335c.05-.325.1-.65.15-1 2.9-12.3 19-14.1 28.8-8.8 5.5 2.9 10.2 7 13.8 12 .8 1.1 2.4 1.3 3.5.5s1.3-2.4.5-3.5c-4.1-5.7-9.4-10.4-15.6-13.6-9.3-4.9-22.3-5-30.5 2.5-3.5 3.3-5.7 7.8-5.9 12.6-.06 2.312-.082 4.631-.073 6.955-.126.44-.126.916.008 1.369.022 2.692.083 5.389.169 8.089a2.624 2.624 0 0 0 .032.987c.181 5.3.454 10.609.726 15.903.233 4.515.465 9.018.638 13.497 0 1.044.06 2.298.122 3.593.023.488.046.981.067 1.472-.071.391-.053.783.043 1.15.034 1.163.039 2.268-.032 3.185-.6 5.3-5.9 9.6-11.1 9.6-1.2-.1-2.3-.4-3.2-1.1-1.315-.866-2.548-2.082-3.805-3.322-2.66-2.623-5.424-5.35-9.295-5.078-1.1 0-2 .9-1.9 2.1.1 1.1 1 1.9 2.1 1.9 1.927.234 3.854 2.343 5.821 4.495 1.401 1.534 2.823 3.09 4.279 4.005 5 3.8 12.2 1.8 16.6-2 2.89-2.38 4.768-5.771 5.328-9.499 1.037 1.131 1.772 2.44 1.772 3.799Zm29.1-45.1c2.18 2.348 3.329 3.821 4.006 4.873-3.861 1.603-7.7.921-16.006-2.473-6.533-2.639-10.627-4.103-15.242-4.42 7.43-4.543 19.257-6.572 27.242 2.02Z" clip-rule="evenodd" />
  <path fill="currentColor" d="m85.867 257.068.008.024c.514 1.423 1.03 2.851 1.525 4.308.2 1 1.3 1.6 2.3 1.4 1.1-.3 1.7-1.3 1.5-2.4-.518-2.213-1.169-4.447-1.817-6.673-.728-2.502-1.454-4.993-1.983-7.427-1-4.4-.5-7.8 3.4-10.3 1.2-.8 1.4-2.4.6-3.5-.8-1.2-2.4-1.4-3.5-.6-1.6 1-2.9 2.3-4 3.8-.2.3-.4.6-.6 1-.4.7-.7 1.4-.9 2.2-.6 2.8-.5 5.7.3 8.5.895 3.372 2.026 6.508 3.166 9.668ZM119.4 208.8c2-2.4 4.1-4.7 6.5-6.7.068-.068.141-.138.217-.211.594-.574 1.36-1.313 1.183-2.289-.6-3.2-5-1-6.5.3-3 2.7-5.4 5.9-7.1 9.5-.4.8-.2 1.8.5 2.4 1.77 1.385 3.067-.31 4.208-1.802.342-.447.67-.876.992-1.198Zm80.8 8.5c.2.1.4.1.6.1 1.1 0 2.1-.8 2.4-1.8 1.9-7.4 1.2-13.6-2-18.2-6.2-9-20.8-10.5-32.5-11.7-5.9-.6-11.6-1.2-14.4-2.6-1.3-.6-2.8-.2-3.4 1.1-.6 1.3-.1 2.8 1.1 3.4 3.585 1.793 9.352 2.395 16.016 3.091l.084.009c10.7 1 24 2.4 29 9.5 2.4 3.4 2.8 8.1 1.3 14.1-.3 1.3.5 2.7 1.8 3Z" />
  <path fill="currentColor" fill-rule="evenodd" d="M139.322 218.669c7.465 3.896 14.036 6.131 25.078 6.131 9.325 0 20.141-3.28 23.308-4.241.501-.151.81-.245.892-.259 1.4-.5 2-1.9 1.6-3.2a2.669 2.669 0 0 0-.53-.899c-1.315-3.067-6.925-12.801-23.67-12.801-11.6 0-19.3 4.8-24.9 8.4-.358.217-.709.433-1.054.644-2.351 1.444-4.389 2.694-6.046 2.956-1.3.2-2.2 1.5-2 2.9.2 1.3 1.5 2.2 2.9 2 1.478-.255 2.93-.847 4.422-1.631Zm5.085-3.058c5.204-3.33 11.778-7.311 21.593-7.311 11.229 0 16.218 5.065 18.184 8.095-4.27 1.261-12.639 3.405-19.784 3.405-8.711 0-14.213-1.459-19.993-4.189Z" clip-rule="evenodd" />
  <path fill="currentColor" d="M180.872 303.041c-2.618.839-5.041 1.615-7.372 1.559-1.1 0-2 .8-2.2 1.8-.143 3.861 7.077 1.996 12.263.656 2.067-.534 3.811-.984 4.637-.956 3.3-.5 6.7 0 9.8 1.2 3.8 1.7 8 3 12.1 2.4a25.951 25.951 0 0 0 1.906-.328c1.539-.303 2.913-.575 4.494-.072 1.384.44 2.649 1.157 3.919 1.878.75.425 1.502.851 2.281 1.222 2.2 1.1 4.5 2.2 6.8 3.2 1 .5 2.2.1 2.7-.8s.2-2.2-.8-2.7c-1.973-1.292-4.316-2.724-6.525-4.073-1.039-.635-2.048-1.251-2.975-1.827-2.5-1.7-5.6-2.6-8.6-2.3-4.2.8-7.7 1-11.6-.7-4.4-2-9.3-2.6-14.1-1.9-2.403.356-4.628 1.069-6.728 1.741ZM187 318.5c6.6 1.9 15.9 3.4 24.4 3.4 3.8 0 7.4-.2 10.6-.9 1.3-.3 2.2-1.6 1.9-3-.3-1.3-1.6-2.2-3-1.9-9.4 2-23.5.3-32.5-2.4-1.3-.4-2.7.4-3.1 1.7-.4 1.3.4 2.7 1.7 3.1Zm37.8 22.1c.4.4 1 .6 1.6.6.7 0 1.4-.3 1.9-.9.9-1 .8-2.6-.2-3.5-12.6-11-33.8-10.6-49.4-6.6-1.3.3-2.1 1.7-1.8 3 .3 1.3 1.7 2.1 3 1.8 14.4-3.7 33.7-4.2 44.9 5.6Zm-39.9-136.1c-8.2-4.8-21.5-6.5-30.5-3.2-3.3 1.2-6.4 3-9.1 5.1-1.1.8-2.7.6-3.5-.5-.8-1.1-.6-2.6.4-3.4 6.2-5.1 14.4-8.4 22.5-8 7.4.2 15.1 1.8 21.4 5.9.356.214.611.427.908.677.121.101.248.208.392.323.9.7 1 2 .3 2.8-.7.8-2 1-2.8.3Zm7.5 74.2c-4.2.6-8.9-2-7.8-6.6.4-1.4-.4-2.7-1.7-3.1-1.4-.4-2.7.4-3.1 1.7-.5 1.8-.4 3.8.3 5.6 1.8 5.1 7.7 7.5 12.7 6.4 1.1-.1 1.9-1.1 1.8-2.2-.1-1.1-1.1-1.9-2.2-1.8Zm-23.2-135c-3.6 0-7-.9-9.7-3.1-4.8-3.9-12.4-4.5-16.7-1.4-7.1 5.1-13.7 5.6-18.7 1.4-4.1-3.5-8.1-6.2-15-3.3-1.3.5-2.7-.1-3.3-1.3-.5-1.3.1-2.7 1.3-3.3 9.5-4 15.4 0 20.2 4.1 3.2 2.7 7.4 2.2 12.6-1.6 6.1-4.4 16.3-3.7 22.8 1.5 4.5 3.6 12.9 1.8 19.3-1.7 7.8-4.2 21.6-5.6 27.8-5.7 5.4-.1 8.9-2.5 9.9-6.6 1.3-5.6-2.9-14.3-14.8-20.1-4.193-2.048-7.91-.863-12.171.495l-.329.105c-4.5 1.5-9.7 3.1-15.7 1.1-3.951-1.383-6.243-.717-9.286.167l-.114.033c-4.3 1.2-9.7 2.7-20.3-1-1.3-.5-2-1.9-1.5-3.2.5-1.3 1.9-2 3.2-1.5 9.1 3.2 13.3 2.1 17.3.9l.22-.059c3.332-.883 6.799-1.802 12.18-.041 4.353 1.484 8.314.228 12.368-1.058l.132-.042.316-.099c4.72-1.477 10.017-3.135 15.984-.201 14.5 7.1 19.2 18 17.5 25.7-.11.503-.246.991-.407 1.464.037.044.073.089.107.136 5.1 7 19.3 11.1 28.7 8.2 10.9-3.4 14.1-.7 17.7 3.9l.1.2c.9 1.1.7 2.7-.4 3.5-.4.4-1 .5-1.5.5-.7 0-1.5-.3-2-.9l-.1-.2-.072-.089c-2.137-2.63-3.365-4.142-8.656-3.051 3.348 2.145 5.807 5.152 7.728 7.54l.184.231c.724.907 1.37 1.716 2.016 2.269 1.5 1.5 3.1 1.3 6.7.3 5-1.4 12.5-3.4 18.4 8.7.6 1.2.1 2.7-1.2 3.3-.3.2-.6.3-1 .3-.9 0-1.8-.5-2.3-1.4-4.07-8.338-7.548-7.414-12.391-6.129l-.109.029c-3.5 1-7.9 2.2-11.6-1.6-.719-.719-1.439-1.6-2.23-2.57l-.27-.33c-3.6-4.4-7.7-9.4-15.1-8.3a2.429 2.429 0 0 1-1.378-.2c-9.109-.144-18.832-3.911-24.069-9.774-2.65 2.805-6.653 4.448-11.453 4.574-6.5.2-19.1 1.7-25.5 5.1-4.7 2.2-10.2 4.1-15.4 4.1Z" />
  <path fill="currentColor" d="M124.2 162.6a9.998 9.998 0 0 1-4.9-1.3c-8.1-4.7-15.5-5.9-21.5-3.3-8.36 3.639-11.497-.848-13.596-3.851L84.1 154l-.065-.095c-1.653-2.433-2.373-3.492-5.335-2.505-1.3.4-2.7-.3-3.1-1.6-.4-1.3.3-2.7 1.6-3.1 6.6-2.1 9.3 1.9 11.1 4.6l.046.068c1.869 2.755 2.792 4.116 7.454 2.132 7.5-3.3 16.5-2 26 3.6 3.2 1.9 7.8-.9 13-4.1l.234-.142c5.541-3.366 11.761-7.143 18.466-6.058 1.4.2 2.3 1.5 2.1 2.9-.2 1.4-1.5 2.3-2.9 2.1-4.9-.8-10.2 2.4-15.2 5.5-.358.203-.716.408-1.075.614-4.056 2.323-8.183 4.686-12.225 4.686Zm37.3-33.6c2.7 1.6 5.6 3.1 8.7 3.1 1.4 0 2.8-.3 4.3-.9 8.4-3.9 15.1-6.4 23.5-4.2 1.4.3 2.7-.5 3.1-1.8.3-1.4-.5-2.7-1.8-3.1-10.1-2.7-17.8.3-26.9 4.5-2.5 1.2-4.6.2-8.4-1.9l-.086-.047c-5.292-2.896-12.479-6.829-24.514-2.453-3.6 1.2-5.9-.1-9-2-3.5-2.1-7.8-4.6-14.2-2.6-1.3.4-2 1.8-1.6 3.1.4 1.3 1.8 2 3.1 1.6 4.134-1.346 6.604.081 9.721 1.882l.379.218.318.182c3.419 1.959 7.257 4.158 12.882 2.218 9.984-3.594 15.583-.51 20.477 2.187l.023.013Z" />
  <path fill="currentColor" d="M171.4 119.9c-2.7 0-5.3-.6-7.6-2.2-4.431-3.052-8.764-2.712-13.764-2.319l-.236.019-.177.014c-4.857.398-10.394.85-16.223-2.114-1.2-.6-1.7-2.1-1.1-3.4.6-1.2 2.1-1.7 3.4-1.1 4.586 2.393 9.072 2.002 13.657 1.604l.043-.004c5.6-.5 11.3-.9 17.2 3.1 3.94 2.659 10.111.662 16.794-1.501l.306-.099.005-.002c7.599-2.499 15.496-5.097 21.995-1.298 1.2.7 1.6 2.2.9 3.4-.7 1.2-2.2 1.6-3.4.9-4.465-2.679-11.194-.436-17.745 1.748l-.155.052c-4.7 1.6-9.5 3.2-13.9 3.2Zm-83.8 60.3c-2.7 0-5.9-1.1-9.7-4-6.862-5.172-10.065-2.727-13.838.152L64 176.4c-2.7 2.1-6.5 4.9-10.9 1.9-1.1-.8-1.4-2.3-.6-3.5.8-1.1 2.3-1.4 3.5-.6 1.2.8 1.9.6 5-1.7 4-3.1 10.1-7.7 20-.2 6.099 4.599 8.399 3.201 13.496.102l.004-.002c.59-.376 1.239-.752 1.914-1.143A78.605 78.605 0 0 0 98.2 170.2c4.5-2.4 9.2-1.9 13.7-1.3l.57.06c3.62.386 7.325.78 11.03-.36 1.3-.4 2.7.3 3.1 1.6.4 1.3-.3 2.7-1.6 3.1-4.915 1.573-9.443 1.02-13.49.526l-.21-.026c-4.1-.5-7.7-.9-10.8.8-1.2.7-2.4 1.4-3.5 2l-.45.27c-2.833 1.706-5.53 3.33-8.95 3.33Zm-1.5 15.4c-.916 0-1.832-.084-2.825-.175L83 195.4c-12.9-1.9-16.1-11.1-16.2-11.5-.4-1.3.3-2.7 1.6-3.2 1.3-.4 2.7.3 3.2 1.6l.021.048c.27.628 2.845 6.609 12.179 8.052 6.4 1 12.7-2.4 18.2-5.4l.839-.444.004-.002c3.289-1.744 6.416-3.401 9.457-3.954 1.4-.3 2.7.6 2.9 2 .2 1.4-.6 2.7-2 2.9-2.5.5-5.6 2.1-8.8 3.9l-.106.057c-5.373 2.886-11.438 6.143-18.194 6.143Z" />
  <path fill="currentColor" d="M71.6 217.3c1.4.2 2.8.3 4 .3 8.5 0 13.8-4.3 19.1-8.9 3.6-3 7.3-6 12.4-8.5 1.3-.6 1.8-2.1 1.2-3.3-.6-1.3-2.1-1.8-3.3-1.2-5.6 2.7-9.8 6.1-13.4 9.1-6.1 5.1-10.6 8.7-19.4 7.5-10.77-1.482-14.706-9.604-17.886-16.164l-.114-.236a99.247 99.247 0 0 0-.86-1.776c1.665.054 2.687.503 3.76 2.076.5.7 1.3 1.1 2.1 1.1.5 0 1-.1 1.3-.3 1.1-.8 1.5-2.3.7-3.5-3.185-4.679-7.46-4.403-10.558-4.203l-.042.003-.19.007c-2.688.097-4.349.157-6.01-1.407-1-.9-2.6-.9-3.5.1-.9 1-.9 2.5.1 3.5 2.237 2.04 4.561 2.651 6.744 2.773.45.743.884 1.636 1.363 2.62.19.389.386.793.593 1.207 3.3 6.9 8.3 17.3 21.9 19.2Z" />
  <path fill="currentColor" d="M77.8 207.3c-3.3 0-6.9-1-10.1-3.7-1.1-.9-1.2-2.4-.4-3.5.9-1.1 2.4-1.2 3.5-.4 5.1 4.2 11.3 2.4 13.4.2.9-1 2.5-1.1 3.5-.1 1 .9 1.1 2.5.1 3.5-2 2.3-5.8 4-10 4ZM56.2 239c-4 0-8-1.2-11.7-4.7-4.883-4.5-6.374-9.276-7.458-12.746l-.142-.454c-1.2-4.2-1.6-5-4.8-4.9-1.4 0-2.5-1.1-2.6-2.4 0-1.4 1.1-2.5 2.4-2.6 7.155-.199 8.483 4.342 9.677 8.423l.023.077.017.06c.996 3.384 2.107 7.162 6.183 10.94 7 6.6 16 2.2 23.8-2.4.264-.151.513-.301.753-.446.399-.241.773-.467 1.147-.654 2.6-1.4 5.2-1.7 7.5-1.9 3.5-.3 6.3-.6 9-4.5.8-1.1 2.3-1.4 3.5-.6 1.1.8 1.4 2.3.6 3.5-4 5.9-8.8 6.3-12.7 6.6l-.148.014-.298.028-.008.001c-1.907.176-3.563.33-5.046 1.257-.27.162-.57.325-.9.503-.279.151-.579.314-.9.497-3.8 2.3-10.7 6.4-17.9 6.4Z" />
  <path fill="currentColor" d="M44.3 215.1c5.5 7.5 9 11 18 11 1.2 0 2.6 0 4-.2 1.4-.1 2.4-1.3 2.3-2.7-.1-1.4-1.3-2.4-2.7-2.3-9.5.8-11.8-.9-17.6-8.8-.8-1.1-2.4-1.3-3.5-.5s-1.3 2.4-.5 3.5Zm9.9 37.3c-5.1 0-10.5-1.9-17-4.9-1.3-.6-1.8-2.1-1.2-3.3.6-1.3 2.1-1.8 3.3-1.2 10 4.6 15.9 6.2 22.9 2.3l1.6-.9c7.1-4 10.1-5.6 12.2-6.2 1.3-.3 2.7.5 3 1.8.3 1.3-.5 2.7-1.8 3-1.483.396-4.825 2.258-10.798 5.587l-.202.113-1.6.9c-3.6 1.9-6.9 2.8-10.4 2.8Zm19.3-89.7c.5.6 1.2.9 1.9.9.5 0 1.1-.2 1.6-.5 1.1-.9 1.3-2.4.4-3.5-4.268-5.062-6.96-4.213-14.135-1.952l-.165.052-.4.1c-1.3.4-2 1.8-1.6 3.1.4 1.3 1.8 2 3.1 1.6l.4-.1c6.8-2.2 6.8-2.2 8.9.3Zm205.6-24c.4 1.1 1.4 1.7 2.4 1.7.3 0 .6-.1.8-.3 1.3-.5 2-1.9 1.5-3.2-2.8-7.9-8.1-10.4-12.3-12.3-3.4-1.5-6.1-2.8-7.6-6.4-3.789-8.975-10.065-9.199-15.653-9.398l-.047-.002c-1.6 0-3.2-.1-4.8-.3-2.9-.4-5-1.6-7-2.8l-.292-.161c-2.824-1.563-5.962-3.299-10.408-2.139-1.4.4-2.2 1.8-1.8 3.1.4 1.4 1.8 2.2 3.1 1.8 2.5-.7 4.1.1 6.9 1.8 2.2 1.3 5 2.9 8.8 3.5 1.405.222 2.755.28 4.05.335.457.02.907.039 1.35.065 5.4.1 8.6.2 11.2 6.3 2.3 5.4 6.4 7.3 10.1 9 4.1 1.8 7.6 3.5 9.7 9.4Z" />
  <path fill="currentColor" d="M246.9 129.5c-7 0-14-2.5-17.8-8.2-.8-1.1-.5-2.7.7-3.5 1.1-.8 2.7-.5 3.5.7 3.4 5.1 13.1 8.1 22 4.4 1.3-.5 2.7.1 3.3 1.4.5 1.3-.1 2.7-1.4 3.3-3.1 1.2-6.6 1.9-10.3 1.9ZM116.6 351.6c12.2 8 27.4 8.2 41.6 7.6 4.703-.286 9.417-.724 14.138-1.162 10.133-.94 20.297-1.884 30.462-1.338 6.4.2 12.7 1 18.9 2.5 4 1.1 7.6 2.2 11.1 4.8 1.1.8 1.3 2.4.5 3.5s-2.4 1.3-3.5.5c-1.8-1.3-3.9-2.2-6-2.9-16.3-4.8-33.6-3.6-50.4-2.1l-.509.047c-17.254 1.587-35.651 3.28-51.891-4.147-2.3-1.1-4.6-2.5-6.7-4-.9-.6-1.1-1.9-.5-2.8.6-.9 1.9-1.1 2.8-.5Zm-51.4-11.8c.3.1.6.2.9.2 1 0 2-.6 2.4-1.7 2.489-6.171 5.175-9.271 7.764-12.258L76.3 326c2.2-2.5 4.3-4.9 6-8.9.6-1.3 0-2.8-1.3-3.3-1.3-.6-2.8 0-3.3 1.3-1.4 3.2-3.1 5.2-5.2 7.6l-.184.218-.36.423c-2.579 3.039-5.542 6.53-8.156 13.159-.5 1.3.1 2.8 1.4 3.3Zm13.097 42.829A2.397 2.397 0 0 1 78.1 382c-.892-5.449-2.667-5.303-8.63-4.814l-.17.014-.176.014c-3.769.298-8.405.664-13.624-.714-1.3-.4-2.1-1.7-1.8-3.1.3-1.4 1.7-2.1 3.1-1.8 4.5 1.2 8.5.9 12.1.6 1.907-.162 3.888-.323 5.752-.13-2.295-2.63-5.374-3.371-8.552-3.57-1.4-.1-2.4-1.3-2.3-2.7.1-1.4 1.3-2.4 2.7-2.3 15.3 1 17.1 14 17.1 23.8 0 7.8-2.4 13.9-6.4 16.3-1.2.6-2.6 1.1-4.3 1.1-1.4 0-3-.4-4.8-1.3-1.2-.7-1.7-2.2-1-3.4.7-1.2 2.2-1.7 3.4-1 2.253 1.22 3.449.59 3.917.343l.083-.043c2.4-1.4 4-6.2 4-12 0-1.706-.07-3.259-.203-4.671ZM50.4 165.9c.2 1.1 1.3 1.9 2.4 1.9.2 0 .4 0 .6-.1 1.4-.3 2.2-1.7 1.9-3-2.2-9.2 4.3-22 9.8-26.7 1-.9 1.1-2.5.2-3.5-.9-1-2.5-1.1-3.5-.2-6.4 5.5-14.2 20-11.4 31.6Zm202-58.4c.5.3 1 .5 1.5.5.8 0 1.6-.3 2-1 .8-1.1.5-2.7-.6-3.5-12.7-9.3-30.4-12.9-43.1-14.3-16.1-1.8-33.6-1.1-48 2-1.3.3-2.2 1.6-1.9 3 .3 1.3 1.7 2.2 3 1.9 27.1-5.8 67.1-3.1 87.1 11.4Zm25.6 350c.3.2.6.2.9.2 1 0 1.9-.6 2.4-1.8.5-1.3-.2-2.7-1.5-3.2-4.8-1.8-12.9-5.9-13.4-14.2-.1-1.3-1.3-2.4-2.7-2.3-1.3.1-2.4 1.3-2.3 2.7.5 8.3 6.4 14.8 16.6 18.6Z" />
</svg>
