<svg viewBox="0 0 1638 498" fill="none" xmlns="http://www.w3.org/2000/svg">
  <path fill-rule="evenodd" clip-rule="evenodd" d="M236 66.3999C237.5 66.7999 238.8 67 240 67C243.3 67 245.3 65.5999 246.4 64.7C248.6 62.5999 249.5 59.2999 248.7 56.0999C247.8 52.5 245 49.6999 241.1 48.5999C235.1 46.7999 230.5 50.5 229.2 54.9C227.9 59.2 229.9 64.6 236 66.3999ZM242.9 60.9C241.8 62 239.8 62.2 237.4 61.5C234.1 60.5 233.5 58.0999 234 56.0999C234.4 54.5999 236.2 52.2 239.7 53.2C241.8 53.7999 243.3 55.1999 243.8 57.0999C244.2 58.5999 243.8 60 242.9 60.9Z" fill="currentColor" />
  <path d="M212.3 76.4C206 76.4 198.7 74.8 192 70C190.9 69.2 190.6 67.6 191.4 66.5C192.2 65.4 193.8 65.1 194.9 65.9C204.877 72.9832 215.725 71.7131 221.611 69.9099L221.6 69.9C220.6 69 220.5 67.4 221.5 66.4C222.4 65.4 224 65.3 225 66.3C225.674 66.9251 226.435 67.4901 227.261 67.9974C227.788 68.0986 228.277 68.3644 228.643 68.7643C231.983 70.4409 236.067 71.3207 239.702 71.5306C240.476 71.1124 241.396 71.1439 242.112 71.5711C243.907 71.5231 245.496 71.293 246.7 70.9C248 70.5 249.4 71.2 249.9 72.5C250.3 73.8 249.6 75.2 248.3 75.7C247.687 75.8226 247.027 75.9451 246.332 76.0562C250.164 79.5889 254.474 81.7001 258.1 81.7001C259.5 81.7001 260.6 82.8001 260.6 84.2001C260.6 85.6001 259.6 86.8001 258.2 86.8001C251.129 86.8001 244.318 81.6931 239.86 76.4721C235.48 76.2916 230.735 75.2339 226.733 73.299C223.491 74.9777 218.27 76.4 212.3 76.4Z" fill="currentColor" />
  <path d="M244.9 45.3001C238 45.3001 232 42.2001 227.3 36.2001C226.5 35.1001 226.7 33.5001 227.7 32.7001C228.8 31.9001 230.4 32.1001 231.2 33.1001C236.7 40.2001 244 42.1001 252.9 38.7001C254.2 38.2001 255.6 38.9001 256.1 40.1001C256.6 41.4001 255.9 42.8001 254.7 43.3001C251.3 44.7001 248 45.3001 244.9 45.3001Z" fill="currentColor" />
  <path d="M281 105.5C278.6 105.5 276 104.3 273.8 102C269.5 97.6001 269.2 91.6001 271 87.9001C272.4 85.2001 274.8 83.8001 277.6 84.2001C279 84.4001 279.9 85.7001 279.7 87.0001C279.5 88.4001 278.2 89.3001 276.9 89.1001C276.886 89.1001 276.871 89.0996 276.854 89.0991C276.618 89.092 276.059 89.0752 275.5 90.1001C274.6 91.8001 274.6 95.6001 277.4 98.4001C279.2 100.3 280.9 100.7 281.7 100.3C282.8 99.7001 283.6 97.1001 282.8 92.6001C282.6 91.2001 283.5 89.9001 284.8 89.7001C286.2 89.5001 287.5 90.4001 287.7 91.7001C289.4 100.9 285.7 103.9 284 104.7C283.1 105.3 282.1 105.5 281 105.5Z" fill="currentColor" />
  <path fill-rule="evenodd" clip-rule="evenodd" d="M188 3.00004C195.795 -2.10024 203.312 -0.810751 209.481 6.60116C214.611 6.15188 219.71 6.05888 224.7 6.39997C236.6 6.99997 244.5 9.69997 248.2 14.5C249.2 15.9 249.8 17.2 250 18.3C264.6 17.3 277.5 26.5 282.3 41.4C298 50.8 304.2 58.9 299.5 80.5C299.443 80.8673 299.323 81.1947 299.152 81.4754C300.722 85.7714 301.984 89.9869 303 93.9999C307.036 109.995 308.093 126.015 307.358 140.464C307.377 141.122 307.359 141.8 307.3 142.5C307.287 142.672 307.256 142.839 307.209 142.999C306.572 152.643 305.147 161.526 303.302 169.152C303.283 169.48 303.203 169.793 303.074 170.079C302.518 172.308 301.925 174.425 301.307 176.417C301.44 176.509 301.571 176.603 301.7 176.7C304.4 178.7 307.5 182.7 307.5 190.4C307.5 197 305.7 199.3 303.8 201.1C302.9 201.9 302.8 202.1 303.2 204.2C305 212.3 305.6 218.3 303 223.3C302.4 224.5 302.7 225.7 303.3 227.7L303.322 227.78C304.019 230.266 304.879 233.335 302.9 236.6L302 238.1C301.286 239.422 300.475 240.89 299.576 242.336C302.433 249.339 299.302 257.886 294.3 261C292.819 261.871 290.35 263.123 287.556 263.43C288.139 273.513 284.939 280.993 278.8 283.1C277.678 283.474 277.343 284.197 276.732 285.515L276.68 285.628L276.6 285.8C275.6 288.2 274.2 290.7 270 290.7C269.739 290.7 269.463 290.693 269.175 290.676C266.232 304.527 262.668 318.234 258.9 331.9C258.638 332.906 258.37 333.911 258.095 334.914C256.158 345.197 259.866 355.349 268.06 361.194C269.31 361.224 270.501 361.363 271.6 361.6C275.045 362.356 277.501 364.101 278.614 366.477C282.77 367.796 286.649 370.882 289.6 375.8C296.08 386.853 288.849 400.177 279.501 407.205C281.61 408.766 284.515 410.141 288.1 411.2C296.1 413.6 301.9 418.2 304 423.8C305.012 426.498 305.668 430.546 303.513 435.644C313.182 439.38 319.727 452.098 320 463C320.2 471.1 316.8 476.8 310.9 478.2C309.8 478.6 308.6 478.7 307.4 478.7C304.749 478.7 302.098 478.025 299.884 476.403C299.473 480.748 298.088 485.467 295.1 489.3C291.8 493.6 287 496.2 281 496.9C280.2 497.1 279.4 497.2 278.6 497.2C268.7 497.2 261.1 489.5 258.8 481.7C256.5 473.9 259.4 467 266.3 463.6C267.5 463 269 463.5 269.6 464.7C270.2 465.9 269.7 467.4 268.5 468C261.8 471.3 262.8 477.7 263.6 480.2C265.5 486.8 272.4 493 280.4 492C285 491.4 288.7 489.5 291.2 486.3C294.9 481.6 295.5 474.9 294.9 470.6C293.9 463 288.4 457 283.5 451.7C280.2 448.1 277 444.6 275.7 441C275.2 439.7 275.9 438.3 277.2 437.8C278.5 437.3 279.9 438 280.4 439.3C281.354 441.877 283.948 444.727 286.791 447.85L287.2 448.3L287.204 448.304C287.597 448.729 287.999 449.162 288.405 449.603C288.684 448.259 289.227 446.982 290.1 445.9C291.2 444.5 293.9 442.4 298.9 443.3C302.8 444 306.1 447.2 307.5 451.4C308.5 454.6 308.1 457.5 306.3 459.3C305.4 460.2 303.4 461.6 299.9 460.5C298.6 460.1 297.8 458.7 298.2 457.4C298.6 456.1 300 455.3 301.3 455.7C302.1 455.9 302.6 455.9 302.7 455.8C302.9 455.6 303.2 454.5 302.7 452.9C302.1 451 300.5 448.7 298 448.2C296.1 447.8 294.7 448.1 294 449C293 450.2 292.9 452.8 293.8 455C295.5 459 300.1 464.9 306.2 464.9H306.4C308.6 464.8 310.3 464 311.5 462.3C313.1 460.1 313.6 456.5 312.6 453.3C312.506 452.994 312.478 452.683 312.508 452.38C309.901 446.264 305.45 441.035 300.078 439.799C300.052 439.8 300.026 439.8 300 439.8C299.6 439.8 299.1 439.7 298.7 439.4C297.5 438.7 297.1 437.2 297.8 436C300.1 432.2 300.6 428.7 299.4 425.6C297.8 421.5 293.1 417.9 286.7 416C280.894 414.233 276.929 411.864 274.388 409.281C274.469 411.451 274.834 413.601 275.5 415.6C277.1 420.2 280.9 426.1 290 428.3C291.3 428.6 292.2 430 291.9 431.3C291.7 432.5 290.7 433.3 289.5 433.3C289.3 433.3 289.1 433.3 288.9 433.2C280 431.1 273.6 425.5 270.8 417.3C268.877 411.597 268.933 405.059 270.705 399.434C270.753 399.084 270.818 398.739 270.9 398.4C270.994 397.993 271.196 397.625 271.469 397.324C272.308 395.286 273.39 393.413 274.7 391.8C275.6 390.7 277.1 390.6 278.2 391.4C279.3 392.3 279.4 393.8 278.6 394.9C277.284 396.537 276.257 398.544 275.544 400.744C275.518 401.644 275.72 402.537 276.136 403.408C283.049 398.11 288.971 389.309 286.1 380.6C280.8 368.9 269.4 367.5 261.9 378.3C259 382.5 257.8 387.8 257.9 392.9C257.9 394.7 258.1 396.4 258.4 398.2C258.6 399.3 257.8 400.3 256.7 400.5C255.8 400.5 254.9 399.9 254.6 399C252.5 391.1 253.2 382.3 257.8 375.4C261.043 370.573 265.211 367.523 269.58 366.321C264.521 365.536 257.537 367.545 253.3 373.1C247.9 380.2 246.4 391.2 249.3 401.7C251.54 409.642 255.992 416.433 262.062 421.32C259.049 414.243 259.433 407.504 259.5 407.1C259.6 405.7 260.8 404.7 262.2 404.8C263.6 404.9 264.6 406.1 264.5 407.5C264.5 407.502 264.5 407.51 264.499 407.522C264.475 408.117 263.987 420.199 272.344 427.269C272.374 427.293 272.404 427.318 272.433 427.344C272.455 427.363 272.477 427.381 272.5 427.4C273.6 428.3 273.7 429.9 272.8 430.9C272.4 431.5 271.7 431.8 270.9 431.8C270.47 431.8 270.092 431.697 269.728 431.492C265.332 429.734 261.348 427.292 257.875 424.286C254.296 443.243 260.579 454.608 277.4 459.9H277.5C284.7 462.5 289 467.7 289.3 473.9C289.5 479.4 286.5 484.6 281.7 486.7C280.6 487.3 279.3 487.6 278.1 487.6C276 487.6 273.9 486.9 272 485.4C268.8 483 267.1 479.1 267.7 475.7C268 473.9 269.2 470.7 273.9 469.1C275.2 468.7 276.6 469.4 277.1 470.7C277.5 472 276.8 473.4 275.5 473.9C273.8 474.5 272.8 475.4 272.6 476.6C272.3 478.1 273.4 480.2 275 481.5C275.9 482.2 277.7 483.2 279.6 482.3C282.5 481 284.4 477.7 284.2 474.2C284.1 471.8 282.9 467.3 275.8 464.7C255.673 458.224 248.154 443.209 253.64 420.052C249.496 415.27 246.398 409.515 244.6 403.1C241.742 393.013 242.629 382.432 246.726 374.385C246.709 374.259 246.7 374.131 246.7 374L246.701 373.965L246.706 373.826L246.706 373.82L246.706 373.815L246.706 373.811C246.734 372.982 246.847 369.544 246.898 365.561C243.133 373.438 238.687 380.979 233.4 388C225.2 399.2 215.1 408.9 203.5 416.6C191.9 424.2 179 429.6 165.4 432.6C164.3 432.8 163.3 432.1 163.1 431C162.8 430 163.4 429.1 164.4 428.8C213 416.1 242.3 377.9 253.9 330.5C257.791 316.344 261.458 302.007 264.446 287.581C264.453 287.454 264.471 287.327 264.5 287.2C264.521 287.107 264.548 287.016 264.581 286.928C265.991 280.069 267.247 273.189 268.3 266.3C269 261.4 269.4 256.4 269.4 251.4C269.3 244.5 271.3 237.3 273.3 230.8C276.7 218.1 275.6 204.3 274.4 191.3C274.081 188.486 273.619 185.689 272.965 182.953C272.771 182.59 272.669 182.184 272.67 181.776C271.034 175.516 268.343 169.611 264 164.6L263.916 164.504L263.766 164.335C263.651 164.205 263.535 164.075 263.42 163.946C261.773 162.428 260.172 160.729 258.6 159C258.507 158.897 258.423 158.787 258.35 158.672C257.936 158.276 257.52 157.885 257.1 157.5C256.1 156.6 256 155 257 154C257.9 153 259.5 152.9 260.5 153.9C262.764 155.99 264.876 158.155 266.903 160.397C271.628 164.696 274.774 165.524 278.1 163.9C280.9 162.5 290.5 158.5 294 165.2C294.6 166.4 294.2 167.9 293 168.6C291.8 169.2 290.3 168.8 289.6 167.6C288.7 165.9 285 166.3 280.4 168.5C278.4 169.3 276.7 169.7 275 169.7C274.45 169.7 273.907 169.658 273.369 169.577C275.17 173.007 276.543 176.665 277.561 180.418C284.104 185.001 286.478 183.835 288.3 182.3C289.3 181.4 290.9 181.5 291.8 182.5C292.7 183.5 292.6 185.1 291.6 186C289.4 187.8 287.2 188.6 285 188.6C282.953 188.6 280.931 187.971 278.99 187.036C279.191 188.257 279.361 189.48 279.5 190.7C279.551 191.24 279.602 191.781 279.652 192.323C282.689 195.158 285.58 197.695 287.2 197.6C287.4 197.6 288 197.6 289 196.4C290.4 194.8 291.4 193.1 292.4 191.4L292.443 191.326C294.226 188.255 295.827 185.497 299.2 185.1C300.6 185 301.8 186 301.9 187.4C302 188.8 301 190 299.6 190.1C298.8 190.2 297.7 192.1 296.7 193.9C295.7 195.7 294.5 197.7 292.8 199.7C291.2 201.5 289.4 202.5 287.5 202.6C287.3 202.5 287.2 202.5 287.1 202.5C284.818 202.5 282.656 201.294 280.258 199.392C280.663 204.764 280.903 210.161 280.703 215.52C282.359 216.542 283.711 217.043 284.881 217.303C285.018 217.291 285.158 217.29 285.3 217.3C288.5 217.6 291.6 216.1 293.5 213.5C294.3 212.4 295.9 212.1 297 212.9C298.1 213.7 298.4 215.3 297.6 216.4C296.425 218.072 294.903 219.437 293.164 220.432C293.421 220.801 293.667 221.221 293.9 221.7C296.6 226.6 296.4 229.1 296.3 229.8L291.4 229V229.2C291.4 229.2 291.4 227.6 289.5 224C288.911 222.822 288.707 222.8 286.902 222.611L286.8 222.6C285.223 222.45 283.081 222.243 280.333 221.005C280.156 222.769 279.921 224.527 279.617 226.276C286.474 229.971 287.887 236.536 288.8 241.1L288.861 241.386C289.165 242.815 289.633 245.013 290.1 245.2C290.6 245.5 292.3 245 297.7 235.7C298 235.1 298.3 234.6 298.6 234.2C299.4 232.8 299.1 231.5 298.5 229.2C297.8 226.9 297 224.1 298.6 221.1C300.5 217.4 299.9 212.3 298.4 205.3C297.4 200.8 298.7 199.1 300.4 197.5C301.5 196.5 302.6 195.4 302.6 190.4C302.6 185.9 301.3 182.6 298.7 180.7C296.7 179.2 294.1 178.7 291.7 179.4C290.4 179.8 289 179 288.6 177.7C288.2 176.4 289 175 290.3 174.6C292.423 174.001 294.664 173.965 296.782 174.444C297.299 172.738 297.796 170.942 298.266 169.063C297.956 166.076 297.375 163.091 296.7 160.2C294.7 151 291.5 142.2 287.2 133.8C273.2 105.9 248 89.4 217.2 85.7C184.4 80.9 150.4 87.6 121.5 103.9C110.4 110 100 117.2 90.3 125.4C81.1081 133.076 72.6345 141.65 64.1986 150.185C63.7324 150.657 63.2661 151.129 62.8 151.6C62 152.4 60.8 152.4 60 151.7C59.3 150.8 59.3 149.6 59.9 148.8C69.7569 136.818 80.9902 125.838 93.2886 116.306C92.5429 116.504 91.7783 116.6 91 116.6C89.9 116.6 88.8 116.4 87.6 116C86.0331 115.407 84.6455 114.456 83.5132 113.267C81.8761 114.282 81.5104 116.067 81 119.3L80.9638 119.532C80.4745 122.673 79.9301 126.167 77.1 128.9C75.3 130.6 73.3 131.6 71.2 131.6C70.2 131.6 69.2 131.4 68.3 130.9C66.1864 129.843 64.7337 127.795 64.4252 125.508C64.1254 126.028 63.8501 126.525 63.6 127C63 128.2 61.4 128.7 60.2 128.1C59 127.5 58.5 125.9 59.1 124.7C60.4028 122.203 62.3014 119.166 64.7385 115.723C64.599 114.847 64.4748 113.924 64.3835 112.957C55.6768 121.162 50.3469 141.461 48.7 151.8C47.8418 157.235 45.0741 162.762 42.3911 168.119L42.3906 168.12L42 168.9C39.6988 173.426 37.3388 178.069 36.8155 181.566C37.8161 181.205 38.8469 180.914 39.9 180.7C41.3 180.4 42.6 181.3 42.8 182.7C43.1 184.1 42.2 185.4 40.8 185.6C36.2 186.5 32.2 189.3 29.9 193.1C27.5 197 27 201.6 28.3 206.5C28.5 207.3 28.4 208.1 27.9 208.7C22.7 215.5 21.2 223.2 23.9 228.3C24.2648 228.987 24.5974 229.522 24.9186 229.935C25.0139 229.984 25.1078 230.039 25.2 230.1C25.5363 230.324 25.8019 230.603 25.9924 230.915C26.8063 231.367 27.6967 231.263 29 231.1L29.0881 231.09C31.6853 230.789 35.4415 230.355 39.1 235.2C39.9 236.3 39.7 237.9 38.6 238.7C38.5796 238.707 38.5584 238.714 38.5362 238.722L38.4872 238.739C38.1821 238.844 37.7301 239 37.2 239C36.4 239 35.7 238.7 35.2 238C33.2297 235.439 32.0358 235.595 29.8017 235.887L29.7 235.9L29.5293 235.919C28.1704 236.072 26.4825 236.261 24.7292 235.637C20.9269 243.252 21.3984 254.045 28.9 259.9C30 260.7 30.2 262.3 29.3 263.4C28.9 264 28.2 264.3 27.4 264.3C26.9 264.3 26.3 264.1 25.9 263.8C24.223 262.502 22.7293 260.898 21.4763 259.063C21.5123 260.438 21.8178 261.886 22.4 263.3C24.6 268.5 29.7 272.1 36.6 273.1C42.9945 273.762 47.3362 269.669 49.2676 267.334C47.0145 264.972 44.6527 262.257 43.3111 258.355C42.3367 258.421 41.4684 258.652 40.6 258.9C36.7 259.9 33.4 260.1 28.3 254.3C27.4 253.3 27.5 251.7 28.5 250.8C29.5 249.9 31.1 250 32 251C35.5 255 36.8 254.7 39.3 254.1L39.4651 254.06C41.9494 253.462 45.3136 252.652 50.4 255C59.2922 258.597 64.6905 254.707 71.482 249.813L71.5 249.8C72.1001 249.35 72.7001 248.925 73.3001 248.5C73.7215 248.201 74.1429 247.903 74.5643 247.596C75.294 246.477 76.8325 246.124 77.9 246.9C78.8854 247.475 79.3313 248.656 79.0164 249.67C78.9346 250.19 78.687 250.691 78.2871 251.085C77.516 252.689 76.499 255.581 77.5 257.5C77.8958 258.292 78.4797 259.021 79.0531 259.737L79.0541 259.738C79.2047 259.926 79.3545 260.113 79.5 260.3C81.4 262.6 83.9 265.7 81.4 270.4C80.1 273.3 77.8 273.9 75.5 273.9C74.2 273.9 73 273.7 71.8 273.5C71.6836 273.483 71.5669 273.466 71.4499 273.449L71.3495 273.435C69.3893 273.149 67.3859 272.857 65.9 273.6C64.7 274.2 63.2 273.7 62.6 272.4C62 271.2 62.5 269.7 63.8 269.1C66.7877 267.706 69.9738 268.196 72.568 268.595L72.6 268.6C75.9 269.1 76.6 269.1 77.1 268.2C78 266.5 77.7 265.9 75.7 263.5C74.9 262.5 74 261.3 73.2 259.9C72.4246 258.46 72.1477 256.935 72.1611 255.469C67.7269 258.524 62.998 261.3 57.1 261.3C54.7903 261.3 52.3228 260.905 49.5572 259.906C50.7122 261.697 52.1561 263.198 53.6 264.7L53.7832 264.89L53.8 264.9C54.2411 265.157 54.5742 265.523 54.7842 265.942C56.9476 268.255 58.8916 270.711 59.4 274.1C59.9 277.3 63.7 283.6 69.8 287.1C74.2639 289.651 78.8937 290.127 83.6139 288.528C83.6048 287.808 83.6 287.098 83.6 286.4C83.6 284.4 83.6 282.6 83.7 280.5C83.8 279.1 85 278.1 86.4 278.2C87.8 278.3 88.8 279.5 88.7 280.9C88.6 282.6 88.6 284.6 88.6 286.4C88.7 291.8 89 298 89.3 303.4L89.3835 304.425C90.5545 318.814 91.7741 333.8 99.1 346.4C104.3 355.1 112.5 361.6 120.6 367.5C130.5 374.5 142 378.7 153.8 381.4C168.4 384.7 183.6 385.9 198.8 387C199.9 387.1 200.8 388 200.7 389.1C200.6 390.2 199.6 391.1 198.5 391C167.9 389.7 135 387.2 110.7 366.3C104.7 361.4 98.7 355.8 94.7 349C90.4482 341.772 88.0607 333.781 86.5917 325.569C81.6302 333.059 81.6857 340.242 86.7 349.1C87.0591 349.716 87.4185 350.33 87.7768 350.942C89.2524 353.46 90.7083 355.946 92.038 358.458C92.2772 358.739 92.4551 359.072 92.5493 359.439C96.0264 366.206 98.4955 373.231 97.9 381.7C97.9 382.8 97 383.7 95.9 383.7C94.8 383.7 93.9 382.8 93.9 381.7C93.7521 377.707 93.0574 373.823 91.8159 370.049C91.524 377.822 92.0086 385.609 92.9693 393.326C93.0704 393.534 93.1485 393.76 93.2 394C93.3852 395.154 93.4851 396.267 93.512 397.344C94.0017 400.715 94.5728 404.069 95.2 407.4C98.6 422.7 105.6 437.2 114.4 450.1C120.3 458.7 127.4 466.5 135.5 473.2C136.4 473.9 136.5 475.2 135.8 476C135.1 476.8 133.9 477 133.1 476.3C120 466.4 109.6 453.3 101.9 438.9C96.9455 429.753 93.1712 419.971 90.6635 409.899C90.0438 411.296 89.3719 412.656 88.7 414C86.3 418.9 83.9 424 83.5 430.7C82.7487 443.754 73.3548 447.106 71.8821 447.632C71.7871 447.666 71.7243 447.688 71.7 447.7C71.4 447.9 71.2 447.9 71 447.9C69.9 447.9 68.9 447.2 68.6 446C68.2 444.7 69 443.3 70.4 442.9L70.4258 442.892C70.9825 442.714 77.9119 440.498 78.5 430.5C78.9 422.7 81.7 416.9 84.2 411.8L84.2705 411.654C86.5895 406.845 88.6656 402.539 88.4591 397.271C88.2316 395.62 88.0158 393.965 87.8 392.3C86.3432 381.811 86.3012 371.228 87.5825 360.734C86.8381 359.424 86.0533 358.115 85.2642 356.799L85.2629 356.797L85.2611 356.794L85.2605 356.793L85.2594 356.791C81.8431 351.095 78.3472 345.267 77.7 338.6C76.8441 331.088 80.6905 324.027 85.5416 318.537C84.9293 313.578 84.5495 308.593 84.2 303.7L84.1713 303.171C82.6607 306.792 80.1955 310.012 75.3 313.2C71.6 315.6 69 319.7 66.3 324C63.1 329 59.7 334.2 54.2 337.9C44.5 344.4 42.8 346.7 43.2 353.4C43.3243 355.203 44.5306 357.585 45.6898 359.466C48.0302 357.031 50.947 354.824 54.3 353.3C60.6 350.4 67.3 350.5 73.5 353.6C74.7 354.2 75.2 355.7 74.6 356.9C74 358.1 72.5 358.7 71.3 358C66.4 355.6 61.4 355.5 56.4 357.8C53.0309 359.316 50.0718 361.81 47.9474 364.431C47.7986 364.887 47.5126 365.3 47.1 365.6C47.0739 365.619 47.048 365.637 47.0222 365.654C45.8604 367.307 45.0515 368.959 44.7 370.4C43.6 374.6 44.1 378.9 46.1 380.9C47.0121 381.882 48.2688 382.372 49.8701 382.405C50.1003 382.336 50.3452 382.3 50.6 382.3C50.85 382.3 51.0988 382.306 51.3461 382.319C51.5911 382.287 51.8423 382.248 52.1 382.2C52.5126 382.105 52.905 382.02 53.2805 381.938C54.0881 381.763 54.8174 381.605 55.5 381.4C63.2 379.6 66.2 379.9 72.5 390.7C73.2 391.9 72.8 393.4 71.6 394.1C71.1 394.3 70.7 394.4 70.2 394.4C69.3 394.4 68.5 394 68 393.2C64.1746 386.697 62.8662 385.286 59.865 385.609C61.2354 386.768 62.3475 388.188 63.1 389.8C64.8 393.6 64.3 397.6 61.7 400.6C59.9158 402.682 56.7559 404.174 53.1944 405.855L53.1 405.9C48.5 408.1 43.3 410.6 42.1 413.9C41.7811 414.729 41.747 415.64 41.9975 416.657C43.258 415.497 44.7747 414.414 46.6 413.4C52 410.5 57.1 407.2 62 403.6C63.1 402.8 64.7 403 65.5 404.1C66.3 405.2 66.1 406.8 65 407.6C60 411.4 54.6 414.8 49 417.8C43.4382 420.852 41.6488 424.64 41.0731 430.569C44.6074 427.125 49.1879 425.016 52.5751 423.457L52.7 423.4C56.3 421.9 59.2 419.4 61.3 416.2C62 415 63.6 414.7 64.8 415.4C66 416.1 66.3 417.7 65.6 418.9C63 423 59.3 426.1 54.8 428C47.5 431.3 40.9 435 40.8 443.1C40.7948 443.168 40.7868 443.235 40.7762 443.302C40.6396 447.844 39.8251 452.973 36.1 455.9C33.3 458.1 29.5 458.7 24.6 457.7C19.1 456.5 13.8 457.5 10.2 460.4C6.9 463.1 5.1 467.3 5.1 472.6C5.1 484.4 12.4 486.9 18.5 486.9C24 486.9 30.5 483.5 30.5 473.8C30.5 471.2 29.8 469.3 28.3 468C25.4634 465.447 20.5705 465.934 19.9614 465.994C19.9263 465.998 19.9054 466 19.9 466H19.7C15.5 466.2 13.4 469.9 13.5 473.3C13.5 474.8 14.2 478.4 18.9 478.4C20.1 478.4 20.9 478.1 21.5 477.5C22.6 476.3 22.8 474.2 22.7 473.5C22.6 472.1 23.7 471 25.1 470.9C26.5 470.8 27.6 471.9 27.7 473.2C27.7 473.224 27.7004 473.256 27.701 473.295C27.7122 474.102 27.7682 478.137 25.1 480.9C23.6 482.5 21.4 483.4 18.8 483.4C11.8 483.4 8.6 478.4 8.4 473.5C8.2 467.7 12.2 461.5 19.3 461.1C20.0363 461.018 24.7209 460.602 28.8648 462.588C29.26 462.613 29.6502 462.746 30 463C32.1 464.3 35 464.4 37.8 463.4C39.8 462.6 41.4 461.3 41.8 460C41.8301 459.902 41.8659 459.807 41.9069 459.715C43.2214 453.586 46.9017 445.303 57 440.7C64.9 437.1 69.3 433.6 70.5 430C70.843 429.02 70.9459 427.992 70.8087 426.904C69.3551 428.673 67.4317 430.486 64.8 432.3C64.4 432.6 63.9 432.7 63.4 432.7C62.6 432.7 61.8 432.3 61.3 431.6C60.5 430.5 60.8 428.9 61.9 428.1C67.9514 423.933 69.3774 420.062 70.7666 416.291L70.8 416.2C72.1 412.5 73.5 408.6 79.2 406.2C80.5 405.7 81.9 406.2 82.5 407.5C83 408.8 82.5 410.2 81.2 410.8C77.5 412.4 76.7 414.5 75.5 418L75.4477 418.143C75.0869 419.13 74.7055 420.173 74.2307 421.259C76.0179 424.868 76.3743 428.379 75.3 431.7C73.6 436.7 68.4 441 59.1 445.3C47.5 450.6 46.2 461.7 46.2 466.3C46.2 481.5 58.6 482.6 62.4 482.6C66 482.6 68.7 481.6 70.7 479.6C72.2511 477.991 73.3732 475.756 74.0093 472.912C74.0124 472.581 74.0785 472.25 74.2042 471.936C74.5356 470.062 74.6723 467.949 74.6 465.6V465.1C74.6 462.2 73.8 460 72.1 458.5C69.9 456.5 66 455.7 61.8 456.2C57.3 456.8 54.9 461.7 55.2 466.2C55.3 467.7 55.9 472.4 60.6 472.4C62.8 472.4 64.3 471.8 65.2 470.7C66.2 469.5 66.3 467.5 65.7 465.1C65.4 463.8 66.2 462.4 67.5 462.1C68.8 461.8 70.2 462.6 70.5 463.9C71.5 467.8 71 471.3 69.1 473.8C67.8 475.5 65.3 477.4 60.5 477.4C54.7 477.4 50.5 473 50.1 466.5C49.5 457.5 55.4 452 61.1 451.3C63.1671 451.07 67.6373 450.782 71.7734 452.544C81.6348 449.338 84.6116 444.05 86.6 435.4C86.9 434.1 88.2 433.2 89.6 433.5C90.9 433.8 91.8 435.1 91.5 436.5C89.5293 445.279 86.1143 452.051 76.6551 456.099C78.6184 458.462 79.6 461.516 79.6 465.2V465.6C79.6206 466.217 79.6411 467.083 79.6121 468.12C84.3764 464.819 88.0426 460.116 89.3 454.3C89.4636 453.755 89.5677 453.18 89.6772 452.575C89.7685 452.071 89.8636 451.546 90 451C90.3 449.6 91.6 448.8 92.9 449C93.7 449.2 94.4 449.8 94.7 450.6C96.6 456.3 99.2 461.8 102.4 467C103.5 468.7 104.6 470.4 105.8 472C106.5 472.8 106.5 474.1 105.6 474.8C104.7 475.5 103.5 475.5 102.8 474.6C98.5497 470.21 95.1247 465.141 92.6266 459.629C89.9515 465.935 85.1324 470.978 78.8316 474.328C78.1044 477.378 76.7373 480.617 74.2 483.2C71.3 486 67.3 487.5 62.4 487.5C52.7 487.5 47.6 483 45 479.3C41.9619 474.873 41.3349 469.919 41.2224 467.249C40.7053 467.524 40.163 467.775 39.6 468C37.9804 468.63 36.28 468.936 34.6442 468.991C35.1481 470.433 35.4 472.039 35.4 473.8C35.4 486.2 26.6 491.9 18.4 491.9C6.9 491.9 0 484.7 0 472.6C0 464 3.8 459.1 7 456.5C11.8 452.6 18.5 451.3 25.6 452.8C28.9 453.5 31.4 453.2 33 452C34.664 450.599 35.561 447.893 35.7582 443.548C35.7201 443.372 35.7 443.189 35.7 443C35.7052 442.377 35.7393 441.773 35.8 441.188V440.6C35.8 432.624 35.8 426.356 38.4133 421.313C38.2899 421.16 38.184 420.989 38.1 420.8C36.6 417.8 36.4 415 37.3 412.3C39.2 407 45.4 404 50.9 401.4L51.3862 401.166C54.1289 399.844 56.8615 398.527 57.9 397.3C59.2 395.8 59.4 393.8 58.5 391.9C57.5691 389.945 55.2519 387.644 51.4676 387.335C46.8767 387.816 44.0262 386.026 42.4 384.4C39.2 381 38.2 375.2 39.8 369.1C40.2437 367.452 41.0891 365.613 42.2823 363.759C40.7498 361.552 38.2199 357.438 38 353.7C37.5 344 41.4 340.3 51.2 333.8C51.6776 333.485 52.1377 333.152 52.582 332.804C43.5188 330.39 40.4819 325.168 38.5 316.7C37.7299 313.655 37.0334 311.308 36.1659 309.098C36.0247 308.807 35.9024 308.507 35.8 308.2L35.7971 308.19C34.2168 304.437 32.0318 300.858 28 294.6C27 293 26 291.5 25.1 290.2C20.125 282.837 17.2291 278.444 21.042 270.421C19.6995 268.868 18.6066 267.119 17.8 265.2C15.8844 260.639 16.049 255.662 18.2179 252.015C16.5436 246.017 17.0215 239.009 20.7213 232.417C20.3397 231.888 19.965 231.286 19.6 230.6C16.1 224.1 17.5 214.7 23.3 206.6C22 200.9 22.8 195.2 25.7 190.5C27.2495 188.001 29.3238 185.851 31.7479 184.176C31.2473 179.107 34.2944 173.022 37.5 166.7C40.2 161.5 43 156 43.8 151.1C44.4 147.5 49.9 115.7 64.3 106.8L64.3259 106.785L64.3591 106.767C64.618 104.025 65.2798 101.08 66.6 98C69.6 91.1 75.4 84.7 84.6 78.2C84.6493 78.1642 84.6995 78.1306 84.7506 78.0992C86.7927 70.5921 92.91 66.2455 97.8806 62.7138L97.9 62.7C98.0855 62.5665 98.2699 62.434 98.453 62.3025C100.737 60.6615 102.819 59.1665 104.3 57.5C106.9 54.4 109.5 50.5 112 46.7L112.116 46.5221C118.08 37.3767 124.255 27.9071 132.8 29C136 25.1 139.9 22.7 143.5 20.6C145.7 19.3 147.8 18 149.2 16.6C153.8 11.9 161.5 8.10004 168.8 11.6C173.595 7.66807 177.838 6.49524 181.353 5.52369L181.355 5.52326C181.505 5.48188 181.653 5.44088 181.8 5.40004C184.2 4.80004 186.2 4.20004 188 3.00004ZM89.4506 87.1126C87.5312 76.1278 93.9916 71.5376 100.779 66.7148L100.8 66.7C103.6 64.8 106.2 62.9 108.1 60.7C110.787 57.6423 113.217 53.8976 115.627 50.1821L116.2 49.3C121.8 40.6 127.1 32.4 133.1 34.1C133.275 34.1478 133.451 34.1779 133.624 34.1909C129.729 36.7507 126.5 39.1753 124.1 41.3C123.1 42.2 123 43.8 123.9 44.8C124.8 45.8 126.4 45.9 127.4 45C142.6 31.6 188 8.89997 224.4 11.4C237.8 12 242.5 15.4 244.1 17.4C245.5 19.1 245.3 20.6 245.3 20.6C245.1 21.5 245.3 22.3 245.9 22.9C246.5 23.5 247.3 23.8 248.1 23.7C261.8 21.6 273.7 29.7 277.9 43.9C278 44.5 278.5 45 279 45.3C291.597 52.7515 297.583 58.0784 295.773 73.2175C287.105 54.2128 271.85 35.15 245 26.1999H244.9C199.8 13.1999 155.1 35.4999 125.6 56.4999C111.965 66.1935 99.7045 76.8901 89.4506 87.1126ZM167.846 16.8531C155.714 21.5499 144.789 27.1818 136.389 32.4211C138.963 29.0198 142.526 26.8659 146 24.8C148.5 23.3 150.9 21.8 152.7 20C156.3 16.3 162.4 13.3 167.6 16.7C167.68 16.7562 167.762 16.8072 167.846 16.8531ZM203.181 7.32526C192.602 8.82184 182.024 11.6915 172.119 15.2568C176.076 12.0217 179.532 11.1125 182.904 10.2252L183 10.2C185.6 9.50004 188.2 8.80004 190.7 7.20004C195.261 4.21193 199.389 4.25367 203.181 7.32526ZM314.836 466.133C312.754 468.506 309.829 469.81 306.5 469.9C306.6 470 306.5 470 306.3 470C304.125 470 302.13 469.525 300.325 468.74C301.49 471.881 304.098 474.574 309.8 473.4C313.331 472.607 314.473 469.062 314.836 466.133ZM251.753 354.294C251.971 357.973 251.942 363.195 251.867 367.356C254.687 364.701 257.987 362.996 261.282 362.066C257.672 358.402 255.1 353.914 253.708 349.004C253.083 350.778 252.432 352.542 251.753 354.294ZM302.026 118.322C302.336 121.882 302.519 125.4 302.589 128.856C301.433 127.45 300.211 126.211 299.1 125.1C297.6 123.6 296.3 122.2 295.6 121C294.8 119.6 294.8 118.2 295.7 117.1C296.7 115.8 298.8 115 300.2 115.4C300.6 115.5 301.6 115.8 301.9 117.8C301.926 117.981 301.969 118.156 302.026 118.322ZM298.2 95.2999C299.482 100.413 300.454 105.526 301.155 110.584C297.849 109.832 294 111.325 291.8 114.1C289.6 116.8 289.4 120.3 291.2 123.5C292.2 125.3 293.8 127 295.5 128.7C299.1 132.3 302.9 136.1 302.3 142.1C302.292 142.213 302.291 142.326 302.297 142.436C302.003 147.069 301.522 151.523 300.895 155.739C298.821 147.323 295.771 139.143 291.8 131.4C288.841 125.481 285.45 120.082 281.664 115.195C284.235 115.117 286.731 114.223 289.5 112.6C296.1 107.8 300.1 97 295.2 87.2C289.754 76.2099 281.956 75.6109 272.97 74.9207L272.7 74.9L272.4 74.8813C270.888 74.7871 269.288 74.6875 267.6 74.5C262.6 74 259 71.4 257.3 67.1C255.7 62.8 256.4 57.6 259 54.6C260.8 52.5 263.2 51.9 266.1 52.6C270.1 53.7 272.8 56 273.7 59.2C274.4 61.7 273.8 64.5 272.3 66C271.4 66.9 270.3 67.1 269 66.8C267.3 66.3 265.3 65.3 265.2 63.2C265.1 62 265.8 61 266.1 60.8C267.4 61.1 268.6 60.3 269 59C269.3 57.6 268.5 56.3 267.2 55.9C265.5 55.4 263.7 55.9 262.3 57.3C260.4 59.2 259.6 62.4 260.3 65.1C260.8 67 262.3 70.2 267.5 71.6C270.5 72.5 273.4 71.7 275.6 69.5C278.3 66.7 279.4 62.1 278.2 57.8C276.8 52.8 272.8 49.2 267 47.7C262.3 46.5 258 47.7 254.9 51.2C251 55.6 250 62.9 252.3 68.9C254.6 74.9 259.8 78.8 266.7 79.5C268.6 79.7 270.3 79.8 271.999 79.9C280.799 80.5 286.1 80.9 290.3 89.4C294 96.7 291 105 286.2 108.5C282.615 111.074 278.776 110.775 275.15 107.68C274.896 107.418 274.641 107.158 274.384 106.9C274.298 106.793 274.203 106.693 274.1 106.6C274.061 106.566 274.021 106.533 273.982 106.499C273.366 105.887 272.743 105.287 272.111 104.696C265.429 97.5042 267.208 89.9673 267.3 89.6C267.6 88.2 266.8 86.9 265.5 86.5C264.1 86.2 262.8 87 262.4 88.3C262.398 88.3122 262.393 88.3312 262.388 88.3568C262.271 88.8955 261.521 92.3526 262.482 96.9042C248.529 87.1754 231.78 81.564 213.1 79.9C171.887 74.9822 132.066 88.2953 99.1526 111.93C100.565 109.829 101.006 107.49 100.3 105.3C99.4 102.7 97.1 100.9 94.6 100.7C92.1 100.6 89.9 102 88.7 104.5C88.1 105.7 88.7 107.2 89.9 107.8C91.1 108.4 92.6 107.8 93.2 106.6C93.3 106.2 93.7 105.6 94.2 105.6C94.6 105.7 95.2 106.1 95.4 106.8C95.8 108 95.1 109.3 93.6 110.6C92 111.9 90.4 111.7 89.3 111.3C87.3 110.5 85.7 108.6 85.4 106.5C85.1 104.2 86.1 101.9 88.5 100C91.3694 97.7243 96.6861 97.896 102.804 98.0937L103 98.1C110.518 98.3929 118.989 98.6858 126.366 94.6041C126.444 94.57 126.522 94.5353 126.6 94.5C126.829 94.3942 127.036 94.2637 127.219 94.1133C138.502 87.4523 142.73 78.5861 143.169 77.665C143.183 77.6345 143.194 77.6127 143.2 77.6C143.7 76.3 143.2 74.9 141.9 74.3C140.6 73.8 139.2 74.3 138.6 75.6C138.6 75.6997 134.922 83.8516 124.493 89.9458C118.547 92.4678 114.089 89.7767 112.2 85.8999C110.3 82 111 76.2999 117 73.0999C121.1 70.8999 124.5 72.4 126 74.8C127.3 76.8 127.6 80.0999 124.2 82.5999C123.1 83.3999 122.1 83.6 121.4 83.3C120.9 83.1 120.6 82.4 120.6 81.8C120.6 81.2 120.9 80.7 121.6 80.3999C122.9 79.7999 123.4 78.3999 122.8 77.0999C122.2 75.7999 120.7 75.2999 119.5 75.8999C117.1 77 115.7 79.2 115.6 81.7C115.6 84.2 116.9 86.5999 119.1 87.7C121.5 88.8999 124.4 88.5999 127.2 86.5999C132.9 82.2999 132.8 76.0999 130.3 72.0999C128.376 68.9925 124.591 66.6514 119.958 67.1018C122.805 64.8914 125.722 62.7182 128.7 60.5999C134.522 56.447 140.945 52.2444 147.848 48.2889C147.371 49.1177 146.996 49.9 146.7 50.5999C143.9 57.3999 145 65.2999 149.6 71.2C153.7 76.4999 160 79.3999 167.1 79.3999C167.541 79.3999 167.982 79.3884 168.415 79.3771C169.259 79.3551 170.073 79.3339 170.8 79.3999C182.6 77.7 187.6 68.1 186.4 59.5C185.3 51.5999 178.8 44.2999 168.5 45.7C162.1 46.6 157.3 49.9 155.4 54.7C153.8 58.7999 154.5 63.4 157.3 66.8C160.3 70.3 164.9 71.8999 170.1 71C173.8 70.7 176.7 68.4999 177.9 65.2C179.1 61.7999 178.3 57.8999 175.9 55.5999C173.8 53.5 170.6 53 167.4 54.2999C166.1 54.7999 165.5 56.2 166 57.5C166.5 58.7999 167.9 59.4 169.2 58.9C170.6 58.3 171.7 58.3999 172.4 59.0999C173.3 60 173.6 61.9 173.1 63.4C172.7 64.3999 171.8 65.7 169.5 65.8999H169.3C165.9 66.5 163 65.6 161.2 63.4C159.6 61.4 159.1 58.6 160.1 56.2C161.3 53.1 164.6 51 169.2 50.4C176.6 49.3 180.7 54.4 181.5 59.9C182.3 65.8999 179.1 72.8999 170.1 74.2C163.1 75.2 157 72.9999 153.3 68.2C149.8 63.6999 149 57.7 151.1 52.5C153.6 46.4 159.8 42.3999 168.5 41.2999C179.817 39.8108 183.743 45.6148 188.3 52.3522L188.4 52.5L188.44 52.5594C192.93 59.2442 197.937 66.6994 210.3 66.5C218.7 66.3999 228.1 58.1 228 46.5C227.9 39.5999 223.6 32.2 211.8 32.2C205.5 32.2 200.4 34.8999 197.8 39.5999C195.5 43.7999 195.6 49 198 52.9C200.3 56.6 204.4 58.5999 209.2 58.2999C213.2 58.2 216.5 56.2999 218.1 52.7999C219.7 49.5 219.3 45.4 217.2 42.9C215.4 40.8 212.7 40 209.7 40.7999C208.3 41.2 207.5 42.5 207.9 43.9C208.3 45.3 209.7 46.1 211 45.7C212.533 45.3166 213.148 45.9434 213.373 46.1724L213.4 46.2C214.2 47.2 214.3 49.1 213.6 50.7C213 51.9 211.8 53.2999 209.1 53.2999H209C205.2 53.5 203.2 51.7999 202.3 50.2999C200.9 48 200.8 44.6999 202.3 42.0999C204.1 38.8999 207.5 37.2 212 37.2C221.7 37.2 223.2 43.0999 223.2 46.5999C223.3 55.0999 216.5 61.5 210.4 61.5999C200.8 61.6999 197.1 56.2 192.8 49.7999L192.731 49.6978C188.55 43.513 183.884 36.6109 173.137 36.1681C194.867 27.8336 219.217 24.0012 243.6 30.9999C278.2 42.5999 292.4 72.3999 298.2 95.2999ZM69.4084 117.956C69.9664 117.733 70.5646 117.547 71.2 117.4C72.5 117.1 73.9 117.9 74.2 119.3C74.5 120.6 73.7 122 72.3 122.3C70.5 122.7 69.4 123.5 69.3 124.5C69.2 125.2 69.7 126.1 70.4 126.4C71.6 127 72.8 126 73.5 125.3C75.2 123.6 75.6 121.1 76 118.5L76.0143 118.409C76.5341 115.116 77.1563 111.173 80.9073 108.963C80.7344 108.453 80.5977 107.93 80.5 107.4C80.3627 106.576 80.2844 105.494 80.4467 104.257C76.0604 109.26 72.3426 113.909 69.4084 117.956ZM106.917 77.8751C100.829 83.2137 95.1942 88.6012 90.1168 93.811C93.7497 92.8256 98.0556 92.9507 102.593 93.0825L103.2 93.1C106.019 93.2208 108.984 93.3416 111.932 93.2012C110.146 91.8159 108.742 90.0283 107.8 88.0999C106.316 85.0331 105.909 81.3545 106.917 77.8751ZM78.3 294.5C79.3196 294.5 80.3392 294.426 81.3544 294.278C79.8998 301.2 78.8441 304.835 72.4 309.1C67.8488 312.068 64.8638 316.701 61.9923 321.157L61.9 321.3L61.5008 321.913C60.0358 324.164 58.5529 326.442 56.8547 328.527C56.8348 328.523 56.8148 328.519 56.7947 328.515C56.7634 328.51 56.7318 328.504 56.7 328.5C47.6 327 45.3 323.4 43.4 315.5C43.2945 315.073 43.1899 314.659 43.0855 314.256C43.606 314.396 44.1451 314.512 44.7 314.6C45.6 314.7 46.5 314.8 47.4 314.8C51.3 314.8 55.7 313.5 58.1 310.2C61.5 305.6 66.2 303.7 69.1 303.7C70.5 303.8 71.7 302.7 71.7 301.3C71.8 299.9 70.7 298.7 69.3 298.7C65 298.6 58.7 301.2 54.2 307.2C52.7 309.2 49 310.3 45.5 309.7C43.2688 309.343 41.5155 308.349 40.8088 307.073C39.5044 303.798 37.8421 300.769 35.2236 296.534C35.9693 296.734 36.729 296.89 37.5 297C38.3 297.1 39.2 297.2 40.1 297.2C45.1 297.2 50.1 295.3 54.1 291.7C55.2 290.8 55.3 289.2 54.4 288.2C53.5 287.1 51.9 287 50.9 287.9C47.2 291.1 42.6 292.6 38.2 292C34 291.4 30.3 288.9 27.7 285L27.6894 284.986C24.4944 280.125 23.4478 277.781 24.9353 273.907C27.9821 276.021 31.7029 277.466 35.9 278.1H36C36.7 278.2 37.4 278.2 38 278.2C45.1405 278.2 50.0543 274.014 52.6226 271.08C53.5824 272.315 54.2709 273.525 54.5 274.9C55.2 279.8 60.3 287.4 67.4 291.5C70.9 293.5 74.6 294.5 78.3 294.5ZM284.901 258.362C284.919 258.367 284.936 258.372 284.953 258.376C285.202 258.386 285.441 258.434 285.666 258.515C288.103 258.814 290.641 257.418 291.7 256.8C294.117 255.262 295.89 251.256 295.684 247.455C294.038 249.097 292.231 250.2 290.3 250.2C289.5 250.2 288.7 250 287.8 249.6C285.282 248.341 284.64 245.395 283.966 242.304L283.9 242C283.158 238.288 282.279 234.099 278.514 231.399C278.487 231.502 278.46 231.604 278.433 231.706C278.389 231.871 278.345 232.036 278.3 232.2C278.21 232.511 278.121 232.821 278.032 233.13C276.234 239.359 274.6 245.021 274.6 251.5C274.6 256.7 274.2 261.9 273.5 267C272.561 273.262 271.451 279.484 270.208 285.674C271.153 285.585 271.418 284.997 271.946 283.819L272 283.7C272.7 282 273.8 279.4 277.1 278.3C281.044 276.892 283.136 270.899 282.466 262.805C279.44 261.599 277.212 258.964 275.7 254.9C275.2 253.6 275.9 252.2 277.2 251.7C278.5 251.2 279.9 251.9 280.4 253.2C281.4 256 282.9 257.7 284.7 258.3C284.749 258.316 284.799 258.332 284.848 258.347C284.866 258.352 284.884 258.357 284.901 258.362ZM69.2972 109.621C73.6222 104.101 78.9869 97.9009 85.2223 91.4172C84.5568 89.0338 84.1954 86.8483 84.0862 84.8374C72.7127 93.7459 69.2871 101.534 69.2972 109.621Z" fill="currentColor" />
  <path fill-rule="evenodd" clip-rule="evenodd" d="M227.4 274.2C227.4 276.9 226.2 279.9 223.7 281C223.65 281 223.625 281.025 223.613 281.037C223.608 281.042 223.605 281.045 223.603 281.044C223.602 281.044 223.601 281.042 223.601 281.038L223.6 281.034L223.6 281.027L223.6 281.025L223.6 281C222.6 281.5 222.2 282.7 222.7 283.7C223.2 284.7 224.4 285.1 225.4 284.6C229.5 283 231.8 278.6 232 274.4C232 269.862 229.15 266.433 225.704 264.042C225.54 258.036 225.249 251.911 224.96 245.829L224.96 245.828V245.826C224.741 241.204 224.522 236.606 224.361 232.104C230.806 231.476 234.535 232.784 242.6 236.1C248.2 238.3 252.5 239.7 256.4 239.7C258.591 239.7 260.651 239.239 262.793 238.37C263.081 238.772 263.438 239.208 263.9 239.7C264.4 240.2 265 240.5 265.7 240.5C266.3 240.5 266.9 240.2 267.4 239.9C268.4 239 268.4 237.4 267.5 236.4C266.6 235.4 266.4 235 266.1 234.2C265.3 232.3 264.3 230.3 260.1 225.8C249.263 214.108 232.825 217.958 224.183 224.551C224.165 223.649 224.149 222.746 224.137 221.842C233.408 215.155 249.87 210.206 258.6 219.8C259.5 220.9 261.1 220.9 262.1 220C263.2 219.1 263.2 217.5 262.3 216.5C252.268 205.413 235.346 209.037 224.136 215.859C224.15 215.038 224.171 214.218 224.2 213.4C224.217 213.283 224.233 213.169 224.25 213.057C224.266 212.948 224.282 212.841 224.299 212.735C224.316 212.623 224.333 212.511 224.35 212.4C224.4 212.075 224.45 211.75 224.5 211.4C227.4 199.1 243.5 197.3 253.3 202.6C258.8 205.5 263.5 209.6 267.1 214.6C267.9 215.7 269.5 215.9 270.6 215.1C271.7 214.3 271.9 212.7 271.1 211.6C267 205.9 261.7 201.2 255.5 198C246.2 193.1 233.2 193 225 200.5C221.5 203.8 219.3 208.3 219.1 213.1C219.04 215.412 219.018 217.731 219.027 220.055C218.901 220.495 218.901 220.971 219.035 221.424C219.057 224.116 219.118 226.813 219.204 229.513C219.164 229.764 219.161 230.028 219.2 230.3C219.21 230.368 219.222 230.435 219.236 230.5C219.417 235.8 219.69 241.109 219.962 246.403C220.195 250.918 220.427 255.421 220.6 259.9C220.6 260.944 220.66 262.198 220.722 263.493C220.745 263.981 220.768 264.474 220.789 264.965C220.718 265.356 220.736 265.748 220.832 266.115C220.866 267.278 220.871 268.383 220.8 269.3C220.2 274.6 214.9 278.9 209.7 278.9C208.5 278.8 207.4 278.5 206.5 277.8C205.185 276.934 203.952 275.718 202.695 274.478C200.035 271.855 197.271 269.128 193.4 269.4C192.3 269.4 191.4 270.3 191.5 271.5C191.6 272.6 192.5 273.4 193.6 273.4C195.527 273.634 197.454 275.743 199.421 277.895C200.822 279.429 202.244 280.985 203.7 281.9C208.7 285.7 215.9 283.7 220.3 279.9C223.19 277.52 225.068 274.129 225.628 270.401C226.665 271.532 227.4 272.841 227.4 274.2ZM256.5 229.1C258.68 231.448 259.829 232.921 260.506 233.973C256.645 235.576 252.806 234.894 244.5 231.5C237.967 228.861 233.873 227.397 229.258 227.08C236.688 222.537 248.515 220.508 256.5 229.1Z" fill="currentColor" />
  <path d="M85.8665 257.068L85.8752 257.092C86.3887 258.515 86.9042 259.943 87.4 261.4C87.6 262.4 88.7 263 89.7 262.8C90.8 262.5 91.4 261.5 91.2 260.4C90.6822 258.187 90.0313 255.953 89.3832 253.727C88.6546 251.225 87.9292 248.734 87.4 246.3C86.4 241.9 86.9 238.5 90.8 236C92 235.2 92.2 233.6 91.4 232.5C90.6 231.3 89 231.1 87.9 231.9C86.3 232.9 85 234.2 83.9 235.7C83.7 236 83.5 236.3 83.3 236.7C82.9 237.4 82.6 238.1 82.4 238.9C81.8 241.7 81.9 244.6 82.7 247.4C83.5947 250.772 84.7264 253.908 85.8665 257.068Z" fill="currentColor" />
  <path d="M119.4 208.8C121.4 206.4 123.5 204.1 125.9 202.1C125.968 202.032 126.041 201.962 126.117 201.889C126.711 201.315 127.477 200.576 127.3 199.6C126.7 196.4 122.3 198.6 120.8 199.9C117.8 202.6 115.4 205.8 113.7 209.4C113.3 210.2 113.5 211.2 114.2 211.8C115.97 213.185 117.267 211.49 118.408 209.998C118.75 209.551 119.078 209.122 119.4 208.8Z" fill="currentColor" />
  <path d="M200.2 217.3C200.4 217.4 200.6 217.4 200.8 217.4C201.9 217.4 202.9 216.6 203.2 215.6C205.1 208.2 204.4 202 201.2 197.4C195 188.4 180.4 186.9 168.7 185.7C162.8 185.1 157.1 184.5 154.3 183.1C153 182.5 151.5 182.9 150.9 184.2C150.3 185.5 150.8 187 152 187.6C155.585 189.393 161.352 189.995 168.016 190.691L168.1 190.7C178.8 191.7 192.1 193.1 197.1 200.2C199.5 203.6 199.9 208.3 198.4 214.3C198.1 215.6 198.9 217 200.2 217.3Z" fill="currentColor" />
  <path fill-rule="evenodd" clip-rule="evenodd" d="M139.322 218.669C146.787 222.565 153.358 224.8 164.4 224.8C173.725 224.8 184.541 221.52 187.708 220.559C188.209 220.408 188.518 220.314 188.6 220.3C190 219.8 190.6 218.4 190.2 217.1C190.075 216.749 189.893 216.448 189.67 216.201C188.355 213.134 182.745 203.4 166 203.4C154.4 203.4 146.7 208.2 141.1 211.8C140.742 212.017 140.391 212.233 140.046 212.444C137.695 213.888 135.657 215.138 134 215.4C132.7 215.6 131.8 216.9 132 218.3C132.2 219.6 133.5 220.5 134.9 220.3C136.378 220.045 137.83 219.453 139.322 218.669ZM144.407 215.611C149.611 212.281 156.185 208.3 166 208.3C177.229 208.3 182.218 213.365 184.184 216.395C179.914 217.656 171.545 219.8 164.4 219.8C155.689 219.8 150.187 218.341 144.407 215.611Z" fill="currentColor" />
  <path d="M180.872 303.041C178.254 303.88 175.831 304.656 173.5 304.6C172.4 304.6 171.5 305.4 171.3 306.4C171.157 310.261 178.377 308.396 183.563 307.056C185.63 306.522 187.374 306.072 188.2 306.1C191.5 305.6 194.9 306.1 198 307.3C201.8 309 206 310.3 210.1 309.7C210.776 309.616 211.404 309.492 212.006 309.372C213.545 309.069 214.919 308.797 216.5 309.3C217.884 309.74 219.149 310.457 220.419 311.178C221.169 311.603 221.921 312.029 222.7 312.4C224.9 313.5 227.2 314.6 229.5 315.6C230.5 316.1 231.7 315.7 232.2 314.8C232.7 313.9 232.4 312.6 231.4 312.1C229.427 310.808 227.084 309.376 224.875 308.027C223.836 307.392 222.827 306.776 221.9 306.2C219.4 304.5 216.3 303.6 213.3 303.9C209.1 304.7 205.6 304.9 201.7 303.2C197.3 301.2 192.4 300.6 187.6 301.3C185.197 301.656 182.972 302.369 180.872 303.041Z" fill="currentColor" />
  <path d="M187 318.5C193.6 320.4 202.9 321.9 211.4 321.9C215.2 321.9 218.8 321.7 222 321C223.3 320.7 224.2 319.4 223.9 318C223.6 316.7 222.3 315.8 220.9 316.1C211.5 318.1 197.4 316.4 188.4 313.7C187.1 313.3 185.7 314.1 185.3 315.4C184.9 316.7 185.7 318.1 187 318.5Z" fill="currentColor" />
  <path d="M224.8 340.6C225.2 341 225.8 341.2 226.4 341.2C227.1 341.2 227.8 340.9 228.3 340.3C229.2 339.3 229.1 337.7 228.1 336.8C215.5 325.8 194.3 326.2 178.7 330.2C177.4 330.5 176.6 331.9 176.9 333.2C177.2 334.5 178.6 335.3 179.9 335C194.3 331.3 213.6 330.8 224.8 340.6Z" fill="currentColor" />
  <path d="M184.9 204.5C176.7 199.7 163.4 198 154.4 201.3C151.1 202.5 148 204.3 145.3 206.4C144.2 207.2 142.6 207 141.8 205.9C141 204.8 141.2 203.3 142.2 202.5C148.4 197.4 156.6 194.1 164.7 194.5C172.1 194.7 179.8 196.3 186.1 200.4C186.456 200.614 186.711 200.827 187.008 201.077C187.129 201.178 187.256 201.285 187.4 201.4C188.3 202.1 188.4 203.4 187.7 204.2C187 205 185.7 205.2 184.9 204.5Z" fill="currentColor" />
  <path d="M192.4 278.7C188.2 279.3 183.5 276.7 184.6 272.1C185 270.7 184.2 269.4 182.9 269C181.5 268.6 180.2 269.4 179.8 270.7C179.3 272.5 179.4 274.5 180.1 276.3C181.9 281.4 187.8 283.8 192.8 282.7C193.9 282.6 194.7 281.6 194.6 280.5C194.5 279.4 193.5 278.6 192.4 278.7Z" fill="currentColor" />
  <path d="M169.2 143.7C165.6 143.7 162.2 142.8 159.5 140.6C154.7 136.7 147.1 136.1 142.8 139.2C135.7 144.3 129.1 144.8 124.1 140.6C120 137.1 116 134.4 109.1 137.3C107.8 137.8 106.4 137.2 105.8 136C105.3 134.7 105.9 133.3 107.1 132.7C116.6 128.7 122.5 132.7 127.3 136.8C130.5 139.5 134.7 139 139.9 135.2C146 130.8 156.2 131.5 162.7 136.7C167.2 140.3 175.6 138.5 182 135C189.8 130.8 203.6 129.4 209.8 129.3C215.2 129.2 218.7 126.8 219.7 122.7C221 117.1 216.8 108.4 204.9 102.6C200.707 100.552 196.99 101.737 192.729 103.095L192.4 103.2C187.9 104.7 182.7 106.3 176.7 104.3C172.749 102.917 170.457 103.583 167.414 104.467L167.3 104.5C163 105.7 157.6 107.2 147 103.5C145.7 103 145 101.6 145.5 100.3C146 99 147.4 98.3 148.7 98.8C157.8 102 162 100.9 166 99.7L166.22 99.6415C169.552 98.7581 173.019 97.8388 178.4 99.6C182.753 101.084 186.714 99.8275 190.768 98.5418L190.9 98.5L191.216 98.4012C195.936 96.9235 201.233 95.2655 207.2 98.2C221.7 105.3 226.4 116.2 224.7 123.9C224.59 124.403 224.454 124.891 224.293 125.364C224.33 125.408 224.366 125.453 224.4 125.5C229.5 132.5 243.7 136.6 253.1 133.7C264 130.3 267.2 133 270.8 137.6L270.9 137.8C271.8 138.9 271.6 140.5 270.5 141.3C270.1 141.7 269.5 141.8 269 141.8C268.3 141.8 267.5 141.5 267 140.9L266.9 140.7L266.828 140.611C264.691 137.981 263.463 136.469 258.172 137.56C261.52 139.705 263.979 142.712 265.9 145.1L266.084 145.331C266.808 146.238 267.454 147.047 268.1 147.6C269.6 149.1 271.2 148.9 274.8 147.9C279.8 146.5 287.3 144.5 293.2 156.6C293.8 157.8 293.3 159.3 292 159.9C291.7 160.1 291.4 160.2 291 160.2C290.1 160.2 289.2 159.7 288.7 158.8C284.63 150.462 281.152 151.386 276.309 152.671L276.2 152.7C272.7 153.7 268.3 154.9 264.6 151.1C263.881 150.381 263.161 149.5 262.37 148.53L262.1 148.2C258.5 143.8 254.4 138.8 247 139.9C246.504 139.971 246.032 139.891 245.622 139.7C236.513 139.556 226.79 135.789 221.553 129.926C218.903 132.731 214.9 134.374 210.1 134.5C203.6 134.7 191 136.2 184.6 139.6C179.9 141.8 174.4 143.7 169.2 143.7Z" fill="currentColor" />
  <path d="M124.2 162.6C122.482 162.595 120.795 162.147 119.3 161.3C111.2 156.6 103.8 155.4 97.8 158C89.4396 161.639 86.3033 157.152 84.2043 154.149L84.1 154L84.0352 153.905C82.3817 151.472 81.6616 150.413 78.7 151.4C77.4 151.8 76 151.1 75.6 149.8C75.2 148.5 75.9 147.1 77.2 146.7C83.8 144.6 86.5 148.6 88.3 151.3L88.3463 151.368C90.2149 154.123 91.1383 155.484 95.8 153.5C103.3 150.2 112.3 151.5 121.8 157.1C125 159 129.6 156.2 134.8 153L135.034 152.858C140.575 149.492 146.795 145.715 153.5 146.8C154.9 147 155.8 148.3 155.6 149.7C155.4 151.1 154.1 152 152.7 151.8C147.8 151 142.5 154.2 137.5 157.3C137.142 157.503 136.784 157.708 136.425 157.914C132.369 160.237 128.242 162.6 124.2 162.6Z" fill="currentColor" />
  <path d="M161.5 129C164.2 130.6 167.1 132.1 170.2 132.1C171.6 132.1 173 131.8 174.5 131.2C182.9 127.3 189.6 124.8 198 127C199.4 127.3 200.7 126.5 201.1 125.2C201.4 123.8 200.6 122.5 199.3 122.1C189.2 119.4 181.5 122.4 172.4 126.6C169.9 127.8 167.8 126.8 164 124.7L163.914 124.653C158.622 121.757 151.435 117.824 139.4 122.2C135.8 123.4 133.5 122.1 130.4 120.2C126.9 118.1 122.6 115.6 116.2 117.6C114.9 118 114.2 119.4 114.6 120.7C115 122 116.4 122.7 117.7 122.3C121.834 120.954 124.304 122.381 127.421 124.182L127.8 124.4L128.118 124.582C131.537 126.541 135.375 128.74 141 126.8C150.984 123.206 156.583 126.29 161.477 128.987L161.5 129Z" fill="currentColor" />
  <path d="M171.4 119.9C168.7 119.9 166.1 119.3 163.8 117.7C159.369 114.648 155.036 114.988 150.036 115.381L149.8 115.4L149.623 115.414C144.766 115.812 139.229 116.264 133.4 113.3C132.2 112.7 131.7 111.2 132.3 109.9C132.9 108.7 134.4 108.2 135.7 108.8C140.286 111.193 144.772 110.802 149.357 110.404L149.4 110.4C155 109.9 160.7 109.5 166.6 113.5C170.54 116.159 176.711 114.162 183.394 111.999L183.7 111.9L183.705 111.898C191.304 109.399 199.201 106.801 205.7 110.6C206.9 111.3 207.3 112.8 206.6 114C205.9 115.2 204.4 115.6 203.2 114.9C198.735 112.221 192.006 114.464 185.455 116.648L185.3 116.7C180.6 118.3 175.8 119.9 171.4 119.9Z" fill="currentColor" />
  <path d="M87.6 180.2C84.9 180.2 81.7 179.1 77.9 176.2C71.0378 171.028 67.8352 173.473 64.0624 176.352L64 176.4C61.3 178.5 57.5 181.3 53.1 178.3C52 177.5 51.7 176 52.5 174.8C53.3 173.7 54.8 173.4 56 174.2C57.2 175 57.9 174.8 61 172.5C65 169.4 71.1 164.8 81 172.3C87.0985 176.899 89.3989 175.501 94.4964 172.402L94.5 172.4C95.0906 172.024 95.7388 171.648 96.4138 171.257C96.9959 170.92 97.598 170.57 98.2 170.2C102.7 167.8 107.4 168.3 111.9 168.9C112.09 168.92 112.28 168.94 112.47 168.96C116.09 169.346 119.795 169.74 123.5 168.6C124.8 168.2 126.2 168.9 126.6 170.2C127 171.5 126.3 172.9 125 173.3C120.085 174.873 115.557 174.32 111.51 173.826L111.3 173.8C107.2 173.3 103.6 172.9 100.5 174.6C99.3 175.3 98.1 176 97 176.6L96.5503 176.87C93.7173 178.576 91.0196 180.2 87.6 180.2Z" fill="currentColor" />
  <path d="M86.1 195.6C85.1839 195.6 84.2678 195.516 83.2748 195.425L83 195.4C70.1 193.5 66.9 184.3 66.8 183.9C66.4 182.6 67.1 181.2 68.4 180.7C69.7 180.3 71.1 181 71.6 182.3C71.6038 182.308 71.6108 182.324 71.6214 182.348C71.8914 182.976 74.4658 188.957 83.8 190.4C90.2 191.4 96.5 188 102 185C102.281 184.852 102.561 184.704 102.839 184.556L102.843 184.554C106.132 182.81 109.259 181.153 112.3 180.6C113.7 180.3 115 181.2 115.2 182.6C115.4 184 114.6 185.3 113.2 185.5C110.7 186 107.6 187.6 104.4 189.4L104.294 189.457C98.9206 192.343 92.8557 195.6 86.1 195.6Z" fill="currentColor" />
  <path d="M71.6 217.3C73 217.5 74.4 217.6 75.6 217.6C84.1 217.6 89.4 213.3 94.7 208.7C98.3 205.7 102 202.7 107.1 200.2C108.4 199.6 108.9 198.1 108.3 196.9C107.7 195.6 106.2 195.1 105 195.7C99.4 198.4 95.2 201.8 91.6 204.8C85.5 209.9 81 213.5 72.2 212.3C61.4296 210.818 57.4937 202.696 54.3144 196.136L54.2 195.9C53.9132 195.295 53.6265 194.699 53.3397 194.124C55.0054 194.178 56.0271 194.627 57.1 196.2C57.6 196.9 58.4 197.3 59.2 197.3C59.7 197.3 60.2 197.2 60.5 197C61.6 196.2 62 194.7 61.2 193.5C58.0146 188.821 53.7391 189.097 50.6424 189.297L50.6 189.3L50.4103 189.307C47.7225 189.404 46.0613 189.464 44.4 187.9C43.4 187 41.8 187 40.9 188C40 189 40 190.5 41 191.5C43.2373 193.54 45.5611 194.151 47.7437 194.273C48.1931 195.016 48.6279 195.909 49.1069 196.893C49.2965 197.282 49.4929 197.686 49.7 198.1C53 205 58 215.4 71.6 217.3Z" fill="currentColor" />
  <path d="M77.8 207.3C74.5 207.3 70.9 206.3 67.7 203.6C66.6 202.7 66.5 201.2 67.3 200.1C68.2 199 69.7 198.9 70.8 199.7C75.9 203.9 82.1 202.1 84.2 199.9C85.1 198.9 86.7 198.8 87.7 199.8C88.7 200.7 88.8 202.3 87.8 203.3C85.8 205.6 82 207.3 77.8 207.3Z" fill="currentColor" />
  <path d="M56.2 239C52.2 239 48.2 237.8 44.5 234.3C39.6167 229.8 38.1257 225.024 37.0421 221.554L36.9 221.1C35.7 216.9 35.3 216.1 32.1 216.2C30.7 216.2 29.6 215.1 29.5 213.8C29.5 212.4 30.6 211.3 31.9 211.2C39.0546 211.001 40.3834 215.542 41.5773 219.623L41.6 219.7L41.6175 219.76C42.613 223.144 43.724 226.922 47.8 230.7C54.8 237.3 63.8 232.9 71.6 228.3C71.8635 228.149 72.1129 227.999 72.3534 227.854C72.7517 227.613 73.126 227.387 73.5 227.2C76.1 225.8 78.7 225.5 81 225.3C84.5 225 87.3 224.7 90 220.8C90.8 219.7 92.3 219.4 93.5 220.2C94.6 221 94.9 222.5 94.1 223.7C90.1 229.6 85.3 230 81.4 230.3L81.2519 230.314L80.9539 230.342L80.9458 230.343C79.0388 230.519 77.3834 230.673 75.9 231.6C75.6293 231.762 75.3294 231.925 75.0001 232.103C74.7211 232.254 74.4211 232.417 74.1 232.6C70.3 234.9 63.4 239 56.2 239Z" fill="currentColor" />
  <path d="M44.3 215.1C49.8 222.6 53.3 226.1 62.3 226.1C63.5 226.1 64.9 226.1 66.3 225.9C67.7 225.8 68.7 224.6 68.6 223.2C68.5 221.8 67.3 220.8 65.9 220.9C56.4 221.7 54.1 220 48.3 212.1C47.5 211 45.9 210.8 44.8 211.6C43.7 212.4 43.5 214 44.3 215.1Z" fill="currentColor" />
  <path d="M54.2 252.4C49.1 252.4 43.7 250.5 37.2 247.5C35.9 246.9 35.4 245.4 36 244.2C36.6 242.9 38.1 242.4 39.3 243C49.3 247.6 55.2 249.2 62.2 245.3L63.8 244.4C70.9 240.4 73.9 238.8 76 238.2C77.3 237.9 78.7 238.7 79 240C79.3 241.3 78.5 242.7 77.2 243C75.7166 243.396 72.3752 245.258 66.4019 248.587L66.2 248.7L64.6 249.6C61 251.5 57.7 252.4 54.2 252.4Z" fill="currentColor" />
  <path d="M73.5 162.7C74 163.3 74.7 163.6 75.4 163.6C75.9 163.6 76.5 163.4 77 163.1C78.1 162.2 78.3 160.7 77.4 159.6C73.1325 154.538 70.4409 155.387 63.2648 157.648L63.1 157.7L62.7 157.8C61.4 158.2 60.7 159.6 61.1 160.9C61.5 162.2 62.9 162.9 64.2 162.5L64.6 162.4C71.4 160.2 71.4 160.2 73.5 162.7Z" fill="currentColor" />
  <path d="M279.1 138.7C279.5 139.8 280.5 140.4 281.5 140.4C281.8 140.4 282.1 140.3 282.3 140.1C283.6 139.6 284.3 138.2 283.8 136.9C281 129 275.7 126.5 271.5 124.6C268.1 123.1 265.4 121.8 263.9 118.2C260.111 109.225 253.835 109.001 248.247 108.802L248.2 108.8C246.6 108.8 245 108.7 243.4 108.5C240.5 108.1 238.4 106.9 236.4 105.7L236.108 105.539C233.284 103.976 230.146 102.24 225.7 103.4C224.3 103.8 223.5 105.2 223.9 106.5C224.3 107.9 225.7 108.7 227 108.3C229.5 107.6 231.1 108.4 233.9 110.1C236.1 111.4 238.9 113 242.7 113.6C244.105 113.822 245.455 113.88 246.75 113.935C247.207 113.955 247.657 113.974 248.1 114C253.5 114.1 256.7 114.2 259.3 120.3C261.6 125.7 265.7 127.6 269.4 129.3C273.5 131.1 277 132.8 279.1 138.7Z" fill="currentColor" />
  <path d="M246.9 129.5C239.9 129.5 232.9 127 229.1 121.3C228.3 120.2 228.6 118.6 229.8 117.8C230.9 117 232.5 117.3 233.3 118.5C236.7 123.6 246.4 126.6 255.3 122.9C256.6 122.4 258 123 258.6 124.3C259.1 125.6 258.5 127 257.2 127.6C254.1 128.8 250.6 129.5 246.9 129.5Z" fill="currentColor" />
  <path d="M116.6 351.6C128.8 359.6 144 359.8 158.2 359.2C162.903 358.914 167.617 358.476 172.338 358.038C182.471 357.098 192.635 356.154 202.8 356.7C209.2 356.9 215.5 357.7 221.7 359.2C225.7 360.3 229.3 361.4 232.8 364C233.9 364.8 234.1 366.4 233.3 367.5C232.5 368.6 230.9 368.8 229.8 368C228 366.7 225.9 365.8 223.8 365.1C207.5 360.3 190.2 361.5 173.4 363L172.891 363.047C155.637 364.634 137.24 366.327 121 358.9C118.7 357.8 116.4 356.4 114.3 354.9C113.4 354.3 113.2 353 113.8 352.1C114.4 351.2 115.7 351 116.6 351.6Z" fill="currentColor" />
  <path d="M65.2 339.8C65.5 339.9 65.8 340 66.1 340C67.1 340 68.1 339.4 68.5 338.3C70.9885 332.129 73.6751 329.029 76.2641 326.042L76.3 326C78.5 323.5 80.6 321.1 82.3 317.1C82.9 315.8 82.3 314.3 81 313.8C79.7 313.2 78.2 313.8 77.7 315.1C76.3 318.3 74.6 320.3 72.5 322.7L72.316 322.918C72.1971 323.058 72.0773 323.199 71.9566 323.341C69.3774 326.38 66.4143 329.871 63.8 336.5C63.3 337.8 63.9 339.3 65.2 339.8Z" fill="currentColor" />
  <path d="M78.2971 382.629C78.2042 382.432 78.1368 382.221 78.1 382C77.2084 376.551 75.4334 376.697 69.4691 377.186L69.3 377.2L69.1241 377.214C65.3553 377.512 60.7185 377.878 55.5 376.5C54.2 376.1 53.4 374.8 53.7 373.4C54 372 55.4 371.3 56.8 371.6C61.3 372.8 65.3 372.5 68.9 372.2C70.8073 372.038 72.7877 371.877 74.6521 372.07C72.3571 369.44 69.2778 368.699 66.1 368.5C64.7 368.4 63.7 367.2 63.8 365.8C63.9 364.4 65.1 363.4 66.5 363.5C81.8 364.5 83.6 377.5 83.6 387.3C83.6 395.1 81.2 401.2 77.2 403.6C76 404.2 74.6 404.7 72.9 404.7C71.5 404.7 69.9 404.3 68.1 403.4C66.9 402.7 66.4 401.2 67.1 400C67.8 398.8 69.3 398.3 70.5 399C72.7531 400.22 73.9486 399.59 74.4174 399.343C74.448 399.327 74.4755 399.312 74.5 399.3C76.9 397.9 78.5 393.1 78.5 387.3C78.5 385.594 78.43 384.041 78.2971 382.629Z" fill="currentColor" />
  <path d="M50.4 165.9C50.6 167 51.7 167.8 52.8 167.8C53 167.8 53.2 167.8 53.4 167.7C54.8 167.4 55.6 166 55.3 164.7C53.1 155.5 59.6 142.7 65.1 138C66.1 137.1 66.2 135.5 65.3 134.5C64.4 133.5 62.8 133.4 61.8 134.3C55.4 139.8 47.6 154.3 50.4 165.9Z" fill="currentColor" />
  <path d="M252.4 107.5C252.9 107.8 253.4 108 253.9 108C254.7 108 255.5 107.7 255.9 107C256.7 105.9 256.4 104.3 255.3 103.5C242.6 94.2 224.9 90.5999 212.2 89.2C196.1 87.3999 178.6 88.0999 164.2 91.2C162.9 91.4999 162 92.7999 162.3 94.2C162.6 95.4999 164 96.3999 165.3 96.0999C192.4 90.2999 232.4 93 252.4 107.5Z" fill="currentColor" />
  <path d="M278 457.5C278.3 457.7 278.6 457.7 278.9 457.7C279.9 457.7 280.8 457.1 281.3 455.9C281.8 454.6 281.1 453.2 279.8 452.7C275 450.9 266.9 446.8 266.4 438.5C266.3 437.2 265.1 436.1 263.7 436.2C262.4 436.3 261.3 437.5 261.4 438.9C261.9 447.2 267.8 453.7 278 457.5Z" fill="currentColor" />
  <path fill-rule="evenodd" clip-rule="evenodd" d="M1111.6 237.5C1103.57 237.5 1097.1 237.77 1091.97 238.871C1086.77 239.988 1082.73 242.009 1079.81 245.666C1076.95 249.248 1075.42 254.096 1074.57 260.333C1073.72 266.585 1073.5 274.55 1073.5 284.6C1073.5 294.65 1073.72 302.615 1074.57 308.867C1075.42 315.104 1076.95 319.952 1079.81 323.534C1082.73 327.191 1086.77 329.212 1091.97 330.329C1097.1 331.431 1103.57 331.7 1111.6 331.7C1119.63 331.7 1126.1 331.431 1131.23 330.329C1136.43 329.212 1140.47 327.191 1143.39 323.534C1146.25 319.952 1147.78 315.104 1148.63 308.867C1149.48 302.615 1149.7 294.65 1149.7 284.6C1149.7 274.55 1149.48 266.585 1148.63 260.333C1147.78 254.096 1146.25 249.248 1143.39 245.666C1140.47 242.009 1136.43 239.988 1131.23 238.871C1126.1 237.77 1119.63 237.5 1111.6 237.5ZM1078.5 284.6C1078.5 274.55 1078.72 266.89 1079.53 261.011C1080.33 255.116 1081.69 251.327 1083.72 248.784C1085.69 246.316 1088.53 244.724 1093.02 243.76C1097.58 242.781 1103.58 242.5 1111.6 242.5C1119.62 242.5 1125.62 242.781 1130.18 243.76C1134.67 244.724 1137.51 246.316 1139.48 248.784C1141.51 251.327 1142.87 255.116 1143.67 261.011C1144.48 266.89 1144.7 274.55 1144.7 284.6C1144.7 294.65 1144.48 302.31 1143.67 308.189C1142.87 314.084 1141.51 317.873 1139.48 320.416C1137.51 322.884 1134.67 324.476 1130.18 325.44C1125.62 326.42 1119.62 326.7 1111.6 326.7C1103.58 326.7 1097.58 326.42 1093.02 325.44C1088.53 324.476 1085.69 322.884 1083.72 320.416C1081.69 317.873 1080.33 314.084 1079.53 308.189C1078.72 302.31 1078.5 294.65 1078.5 284.6Z" fill="currentColor" />
  <path fill-rule="evenodd" clip-rule="evenodd" d="M1047.49 220.963C1059.96 208.586 1080.42 204.8 1111.6 204.8C1142.73 204.8 1163.19 208.586 1175.67 220.962C1188.16 233.345 1192 253.666 1192 284.6C1192 315.534 1188.16 335.855 1175.67 348.238C1163.19 360.614 1142.73 364.4 1111.6 364.4C1080.47 364.4 1060.01 360.614 1047.53 348.238C1035.04 335.855 1031.2 315.534 1031.2 284.6C1031.2 253.668 1035.01 233.347 1047.49 220.963ZM1036.2 284.6C1036.2 253.632 1040.14 235.303 1051.01 224.512C1061.89 213.714 1080.38 209.8 1111.6 209.8C1142.77 209.8 1161.26 213.714 1172.15 224.513C1183.04 235.305 1187 253.634 1187 284.6C1187 315.566 1183.04 333.895 1172.15 344.687C1161.26 355.486 1142.77 359.4 1111.6 359.4C1080.43 359.4 1061.94 355.486 1051.05 344.687C1040.16 333.895 1036.2 315.566 1036.2 284.6Z" fill="currentColor" />
  <path fill-rule="evenodd" clip-rule="evenodd" d="M1278.9 237.5C1270.87 237.5 1264.4 237.77 1259.27 238.871C1254.07 239.988 1250.03 242.009 1247.11 245.666C1244.25 249.248 1242.72 254.096 1241.87 260.333C1241.02 266.585 1240.8 274.55 1240.8 284.6C1240.8 294.65 1241.02 302.615 1241.87 308.867C1242.72 315.104 1244.25 319.952 1247.11 323.534C1250.03 327.191 1254.07 329.212 1259.27 330.329C1264.4 331.431 1270.87 331.7 1278.9 331.7C1286.93 331.7 1293.4 331.431 1298.53 330.329C1303.73 329.212 1307.77 327.191 1310.69 323.534C1313.55 319.952 1315.08 315.104 1315.93 308.867C1316.78 302.615 1317 294.65 1317 284.6C1317 274.55 1316.78 266.585 1315.93 260.333C1315.08 254.096 1313.55 249.248 1310.69 245.666C1307.77 242.009 1303.73 239.988 1298.53 238.871C1293.4 237.77 1286.93 237.5 1278.9 237.5ZM1245.8 284.6C1245.8 274.55 1246.02 266.89 1246.83 261.011C1247.63 255.116 1248.99 251.327 1251.02 248.784C1252.99 246.316 1255.83 244.724 1260.32 243.76C1264.88 242.781 1270.88 242.5 1278.9 242.5C1286.92 242.5 1292.92 242.781 1297.48 243.76C1301.97 244.724 1304.81 246.316 1306.78 248.784C1308.81 251.327 1310.17 255.116 1310.97 261.011C1311.78 266.89 1312 274.55 1312 284.6C1312 294.65 1311.78 302.31 1310.97 308.189C1310.17 314.084 1308.81 317.873 1306.78 320.416C1304.81 322.884 1301.97 324.476 1297.48 325.44C1292.92 326.42 1286.92 326.7 1278.9 326.7C1270.88 326.7 1264.88 326.42 1260.32 325.44C1255.83 324.476 1252.99 322.884 1251.02 320.416C1248.99 317.873 1247.63 314.084 1246.83 308.189C1246.02 302.31 1245.8 294.65 1245.8 284.6Z" fill="currentColor" />
  <path fill-rule="evenodd" clip-rule="evenodd" d="M1278.9 204.8C1247.77 204.8 1227.31 208.586 1214.83 220.962C1202.34 233.345 1198.5 253.666 1198.5 284.6C1198.5 315.534 1202.34 335.855 1214.83 348.238C1227.31 360.614 1247.77 364.4 1278.9 364.4C1310.03 364.4 1330.49 360.614 1342.97 348.238C1355.46 335.855 1359.3 315.534 1359.3 284.6C1359.3 253.666 1355.46 233.345 1342.97 220.962C1330.49 208.586 1310.03 204.8 1278.9 204.8ZM1203.5 284.6C1203.5 253.634 1207.46 235.305 1218.35 224.513C1229.24 213.714 1247.73 209.8 1278.9 209.8C1310.07 209.8 1328.56 213.714 1339.45 224.513C1350.34 235.305 1354.3 253.634 1354.3 284.6C1354.3 315.566 1350.34 333.895 1339.45 344.687C1328.56 355.486 1310.07 359.4 1278.9 359.4C1247.73 359.4 1229.24 355.486 1218.35 344.687C1207.46 333.895 1203.5 315.566 1203.5 284.6Z" fill="currentColor" />
  <path fill-rule="evenodd" clip-rule="evenodd" d="M1564.8 204.8C1551.03 204.8 1539.7 205.363 1530.46 206.798C1521.23 208.232 1513.92 210.56 1508.3 214.202C1496.79 221.668 1493.2 234.064 1493.2 252.3C1493.2 259.437 1493.98 265.587 1496.06 270.926C1498.15 276.316 1501.52 280.756 1506.47 284.527C1516.21 291.935 1532.11 296.762 1556.61 301.652L1556.61 301.653C1570.81 304.462 1579.43 306.711 1584.5 309.227C1586.99 310.463 1588.41 311.666 1589.23 312.847C1590.02 313.984 1590.4 315.31 1590.4 317.1C1590.4 319.819 1590.19 321.509 1589.71 322.663C1589.3 323.63 1588.64 324.364 1587.16 324.978C1585.53 325.65 1583.05 326.12 1579.17 326.405C1575.34 326.687 1570.37 326.775 1563.89 326.8C1557.45 326.8 1552.55 326.679 1548.79 326.237C1545.01 325.792 1542.69 325.05 1541.19 324.024C1539.8 323.079 1538.89 321.731 1538.31 319.444C1537.7 317.051 1537.5 313.814 1537.5 309.3C1537.5 307.919 1536.38 306.8 1535 306.8H1492.7C1491.32 306.8 1490.2 307.919 1490.2 309.3C1490.2 330.5 1493.89 344.794 1505.82 353.46C1511.68 357.723 1519.34 360.461 1529.02 362.149C1538.7 363.837 1550.57 364.5 1565 364.5C1579.04 364.5 1590.58 363.968 1599.98 362.612C1609.37 361.257 1616.79 359.059 1622.49 355.615C1634.23 348.527 1637.9 336.694 1637.9 319.3C1637.9 311.561 1636.94 304.882 1634.48 299.069C1632 293.213 1628.06 288.387 1622.33 284.27C1611.06 276.161 1592.74 270.739 1564.69 265.249C1554.44 263.138 1548.33 261.424 1544.78 259.412C1543.07 258.444 1542.11 257.49 1541.55 256.528C1541 255.569 1540.7 254.377 1540.7 252.7C1540.7 249.873 1540.89 248.045 1541.36 246.771C1541.76 245.676 1542.39 244.936 1543.66 244.334C1545.08 243.659 1547.3 243.167 1550.85 242.873C1554.36 242.582 1558.93 242.5 1564.9 242.5C1570.95 242.5 1575.51 242.634 1579 243.117C1582.5 243.602 1584.6 244.402 1585.96 245.496C1587.24 246.535 1588.15 248.077 1588.73 250.737C1589.31 253.462 1589.5 257.108 1589.5 262.1C1589.5 263.481 1590.62 264.6 1592 264.6H1634.3C1635.68 264.6 1636.8 263.481 1636.8 262.1C1636.8 240.097 1633.25 225.305 1621.79 216.309C1616.13 211.862 1608.74 209.005 1599.41 207.246C1590.08 205.489 1578.66 204.8 1564.8 204.8ZM1498.2 252.3C1498.2 234.536 1501.71 224.432 1511.02 218.398C1515.82 215.29 1522.35 213.118 1531.23 211.739C1540.09 210.362 1551.12 209.8 1564.8 209.8C1578.54 209.8 1589.61 210.487 1598.48 212.16C1607.36 213.833 1613.89 216.464 1618.71 220.241C1627.83 227.405 1631.51 239.33 1631.78 259.6H1594.48C1594.42 255.703 1594.2 252.41 1593.61 249.682C1592.89 246.323 1591.56 243.59 1589.09 241.604C1586.7 239.673 1583.54 238.698 1579.69 238.164C1575.82 237.629 1570.95 237.5 1564.9 237.5C1558.92 237.5 1554.18 237.58 1550.44 237.89C1546.74 238.196 1543.78 238.742 1541.52 239.816C1539.1 240.964 1537.53 242.686 1536.67 245.042C1535.86 247.217 1535.7 249.827 1535.7 252.7C1535.7 254.973 1536.1 257.106 1537.23 259.044C1538.36 260.979 1540.08 262.494 1542.32 263.763C1546.66 266.225 1553.55 268.061 1563.7 270.149L1563.72 270.154C1591.86 275.662 1609.14 280.94 1619.42 288.33C1624.47 291.963 1627.79 296.087 1629.88 301.019C1631.98 305.994 1632.9 311.939 1632.9 319.3C1632.9 336.106 1629.37 345.623 1619.91 351.335C1615.01 354.292 1608.33 356.355 1599.27 357.663C1590.22 358.969 1578.96 359.5 1565 359.5C1550.68 359.5 1539.14 358.838 1529.87 357.223C1520.61 355.608 1513.78 353.064 1508.76 349.415C1499.31 342.547 1495.51 331.17 1495.22 311.8H1532.52C1532.59 315.246 1532.83 318.204 1533.46 320.678C1534.27 323.838 1535.75 326.359 1538.36 328.151C1540.86 329.863 1544.16 330.727 1548.21 331.203C1552.29 331.683 1557.45 331.8 1563.9 331.8L1563.91 331.8C1570.38 331.775 1575.51 331.688 1579.54 331.392C1583.53 331.099 1586.68 330.588 1589.07 329.597C1591.6 328.548 1593.33 326.939 1594.32 324.603C1595.22 322.453 1595.4 319.882 1595.4 317.1C1595.4 314.54 1594.84 312.153 1593.34 309.994C1591.87 307.878 1589.65 306.2 1586.72 304.748C1580.97 301.889 1571.69 299.538 1557.59 296.748C1532.99 291.838 1518.19 287.165 1509.5 280.548C1505.24 277.307 1502.46 273.603 1500.72 269.114C1498.95 264.576 1498.2 259.113 1498.2 252.3Z" fill="currentColor" />
  <path fill-rule="evenodd" clip-rule="evenodd" d="M894.1 207.1C892.719 207.1 891.6 208.219 891.6 209.6V244.2C891.6 245.581 892.719 246.7 894.1 246.7H937.5V359.6C937.5 360.981 938.619 362.1 940 362.1H980.4C981.781 362.1 982.9 360.981 982.9 359.6V246.7H1026.8C1028.18 246.7 1029.3 245.581 1029.3 244.2V209.6C1029.3 208.219 1028.18 207.1 1026.8 207.1H894.1ZM942.6 244.2C942.6 242.819 941.481 241.7 940.1 241.7H896.6V212.1H1024.3V241.7H980.4C979.019 241.7 977.9 242.819 977.9 244.2V357.1H942.5V244.902C942.565 244.68 942.6 244.444 942.6 244.2Z" fill="currentColor" />
  <path fill-rule="evenodd" clip-rule="evenodd" d="M1372.2 207.1C1370.82 207.1 1369.7 208.219 1369.7 209.6V359.6C1369.7 360.981 1370.82 362.1 1372.2 362.1H1485.7C1487.08 362.1 1488.2 360.981 1488.2 359.6V325C1488.2 323.619 1487.08 322.5 1485.7 322.5H1415.1V209.6H1412.6V207.1H1372.2ZM1410.1 325V212.1H1374.7V357.1H1483.2V327.5H1412.6C1411.22 327.5 1410.1 326.381 1410.1 325Z" fill="currentColor" />
  <path fill-rule="evenodd" clip-rule="evenodd" d="M798.8 206.8C767.605 206.8 747.932 210.637 736.098 222.383C724.262 234.129 720.4 253.654 720.4 284.6C720.4 315.547 724.288 335.071 736.135 346.818C747.982 358.563 767.654 362.4 798.8 362.4C829.946 362.4 849.618 358.563 861.465 346.818C873.312 335.071 877.2 315.547 877.2 284.6C877.2 253.653 873.312 234.129 861.465 222.382C849.618 210.637 829.946 206.8 798.8 206.8ZM763.7 284.6C763.7 274.55 763.913 266.768 764.73 260.739C765.547 254.707 766.962 250.495 769.316 247.536C771.659 244.593 774.982 242.83 779.758 241.805C784.548 240.776 790.75 240.5 798.8 240.5C806.824 240.5 813.014 240.776 817.8 241.805C822.571 242.83 825.898 244.593 828.247 247.537C830.607 250.495 832.031 254.708 832.856 260.74C833.681 266.768 833.9 274.55 833.9 284.6C833.9 294.65 833.681 302.432 832.856 308.46C832.031 314.492 830.607 318.705 828.247 321.663C825.898 324.607 822.571 326.37 817.8 327.396C813.014 328.424 806.824 328.7 798.8 328.7C790.776 328.7 784.585 328.424 779.8 327.396C775.029 326.37 771.702 324.607 769.353 321.663C766.993 318.705 765.569 314.492 764.744 308.46C763.919 302.432 763.7 294.65 763.7 284.6Z" fill="currentColor" />
  <path d="M417.9 209V298C417.9 323.599 421.213 339.777 431.366 349.511C441.513 359.238 458.357 362.4 485 362.4C511.643 362.4 528.487 359.238 538.634 349.511C548.787 339.777 552.1 323.599 552.1 298V209H510.7V298C510.7 305.024 510.531 310.455 509.916 314.657C509.301 318.862 508.249 321.775 506.53 323.815C504.821 325.844 502.399 327.071 498.907 327.787C495.404 328.505 490.874 328.7 485 328.7C479.126 328.7 474.596 328.505 471.093 327.787C467.601 327.071 465.179 325.844 463.47 323.815C461.751 321.775 460.699 318.862 460.084 314.657C459.469 310.455 459.3 305.024 459.3 298V209H417.9Z" fill="currentColor" />
  <path d="M364.1 209.1V309.4C364.1 313.775 363.987 317.139 363.567 319.734C363.148 322.328 362.432 324.092 361.274 325.319C360.119 326.543 358.465 327.296 356.031 327.738C353.591 328.18 350.425 328.3 346.3 328.3C342.125 328.3 338.909 328.18 336.421 327.734C333.939 327.289 332.24 326.529 331.048 325.291C329.853 324.05 329.107 322.267 328.667 319.647C328.226 317.025 328.1 313.624 328.1 309.2V293.3H286.7V309.2C286.7 330.255 289.639 343.639 298.68 351.71C307.699 359.763 322.659 362.4 346.3 362.4C369.791 362.4 384.652 359.763 393.609 351.735C402.586 343.689 405.5 330.355 405.5 309.4V209.1H364.1Z" fill="currentColor" />
  <path d="M564.5 360.2V209.1H603.538L669.939 291.1H670.4V209.1H711.8V360.2H672.962L606.362 278.4H605.9V360.2H564.5Z" fill="currentColor" />
</svg>
