<svg fill="none" viewBox="0 0 325 80" xmlns="http://www.w3.org/2000/svg">
  <g fill="#fff">
    <path d="m107.482 24.6734c0 23.1163-.03 24.7931-.478 26.41-1.194 4.3119-4.121 7.1565-8.2712 8.0249-3.7923.8084-7.9429-.569-11.2574-3.7729-.9854-.9881-2.0603-2.2458-2.3291-2.7847-.2986-.539-.6569-.9882-.8361-.9882-.1791 0-2.5381 2.2458-5.2853 4.9706l-4.9568 5.0305.7465.9882c3.6131 4.7909 10.6303 8.953 17.4385 10.3304 3.1652.6288 8.1219.7187 11.3469.1198 8.689-1.5271 15.736-7.7254 18.095-15.9299.329-1.0779.717-2.2158.866-2.4853.239-.3892.329-7.2463.389-27.5779l.029-27.0089h-7.763-7.734zm205.708-7.6655-4.33 4.4016-3.254-1.6169c-2.389-1.1977-4.032-1.7966-6.241-2.3057-2.807-.6587-3.255-.6887-8.003-.5689-4.449.1198-5.285.2096-7.316.8384-17.916 5.3898-26.516 24.0446-18.304 39.8846.597 1.1379 1.403 2.5153 1.851 3.1142l.747.9881-4.867 4.9107-4.868 4.8808 3.315 3.3836 3.314 3.3836 4.957-4.9407 4.957-4.9706 2.21 1.1978c2.598 1.4073 5.733 2.635 8.122 3.2039 2.269.5689 9.316.7785 11.705.3893 5.942-1.0181 11.437-3.7729 15.677-7.8452 7.256-7.0367 10.302-16.2892 8.42-25.8711-.537-2.9045-2.239-6.7971-4.24-9.8214l-1.194-1.8266 4.24-4.2519 4.21-4.252-3.284-3.2638c-1.822-1.8266-3.345-3.3238-3.375-3.3836-.089 0-2.06 1.9163-4.449 4.3418zm-18.454 12.8756c2.031.4192 4.091 1.1678 4.091 1.4074 0 .1197-4.479 4.6711-9.973 10.1508-9.287 9.2525-10.033 9.9112-10.332 9.4621-1.194-1.6768-1.612-6.8271-.776-9.9412.239-.8684.508-1.6469.597-1.7367.12-.0899.538-.7786.985-1.5571 2.18-4.0723 6.809-7.3062 11.258-7.935 2.239-.2695 2.18-.2695 4.15.1497zm12.064 11.6181c1.344 5.1203-.537 11.1688-4.658 14.9717-4.42 4.1321-10.123 5.1502-15.468 2.7847l-1.553-.6588 10.213-10.2406 10.182-10.2107.448.8684c.239.479.627 1.587.836 2.4853zm-78.712-24.4937c-1.911.4192-3.135.8384-5.106 1.7966-1.792.8683-2.717 1.5271-4.509 3.3536l-2.299 2.2757v-3.2938-3.2338h-7.734-7.734v27.2484 27.2485l7.704-.0598 7.674-.0899.12-17.0977.119-17.0976.896-1.8865c1.851-4.0124 5.703-6.4079 10.272-6.4079 3.225 0 5.464.9882 7.465 3.174 1.284 1.4074 1.762 2.3057 2.478 4.5814.329 1.1378.418 3.8028.508 18.0858l.119 16.7982h7.346 7.226v-18.3852c-.03-16.8581-.059-18.535-.507-20.7208-1.195-5.7492-3.554-9.7017-7.615-12.7859-3.732-2.8446-6.45-3.6531-12.093-3.6231-2.09 0-4.031.0599-4.33.1198zm-91.731 19.7925c0 15.3311.089 19.2237.358 20.661.209.9881.508 1.9164.627 2.096.12.1797.388.7786.568 1.3774 1.612 5.0904 6.509 9.8215 12.063 11.7079 2.449.8384 8.301 1.048 11.168.3893 4.3-.9582 7.734-2.9345 10.332-5.839l1.343-1.5271v3.3536 3.3836h7.615 7.614v-27.2485-27.2484h-7.614-7.615v15.6903c0 16.918-.119 18.505-1.313 20.9005-2.658 5.2101-9.436 7.5457-14.542 5.0305-3.136-1.5271-5.017-4.3119-5.674-8.3243-.149-.8983-.269-8.3841-.269-17.457v-15.84h-7.345-7.346v18.8942z" />
    <g clip-rule="evenodd" fill-rule="evenodd">
      <path d="m29.0076 3.1611c0-1.7458-1.301-3.1611-2.9059-3.1611 0 0-.0016 0-.0034 0-1.6032 0-2.9041 1.4153-2.9041 3.1611v72.9837c0 1.7458 1.3009 3.1611 2.9041 3.1611h.0034c1.6049 0 2.9059-1.4153 2.9059-3.1611 0-12.74 0-60.2458 0-72.9837z" />
      <path d="m17.2696 63.309c-1.6042-.0014-2.9062 1.4126-2.9075 3.1585v.0037c-.0013 1.7441 1.2985 3.1605 2.9027 3.1619 4.4627.0041 12.9562.0118 17.4191.0158 1.6047.0014 2.9067-1.4126 2.9081-3.1567 0-.0018 0-.0037 0-.0037.0012-1.7459-1.2985-3.1623-2.9033-3.1637-4.4629-.0041-12.9563-.0118-17.4191-.0158z" />
      <path d="m2.90767 21.9627c-1.60528-.0014-2.90629048 1.4127-2.90766911 3.1586v.0036c-.00124077 1.7441 1.29756911 3.1606 2.90284911 3.162 9.12085.0082 37.11645.0336 46.23735.0418 1.604.0014 2.9063-1.4126 2.9077-3.1568 0-.0018 0-.0036 0-.0036.0013-1.7459-1.2988-3.1624-2.9029-3.1638-9.1209-.0082-37.1164-.0335-46.23733-.0418z" />
      <path d="m12.4876 5.98496c-1.1358-1.23312-2.9756-1.23089-4.10925.00504 0 0-.00111.0014-.00235.00266-1.1324 1.23452-1.13047 3.23596.00538 4.46894 6.25632 6.7915 25.01452 27.1535 31.27092 33.9449 1.1359 1.2331 2.9756 1.2309 4.1081-.0038.0012-.0012.0023-.0025.0023-.0025 1.1336-1.2359 1.1319-3.2372-.0041-4.4703-6.2564-6.7914-25.0146-27.1536-31.271-33.94494z" />
      <path d="m8.4191 39.984c-1.13269 1.2366-1.12939 3.2379.00743 4.4703 0 0 .00125.0013.00249.0027 1.13558 1.231 2.97518 1.2277 4.10808-.009 6.2387-6.8105 24.9438-27.2301 31.1827-34.0407 1.1327-1.23645 1.1294-3.23774-.0062-4.4689-.0013-.00126-.0025-.00266-.0025-.00266-1.1368-1.23243-2.9765-1.22893-4.1093.00756-6.2387 6.8105-24.9438 27.2302-31.1827 34.0407z" />
    </g>
  </g>
</svg>
