<svg fill="none" viewBox="0 0 52 79" xmlns="http://www.w3.org/2000/svg">
  <g clip-rule="evenodd" fill="#f0827d" fill-rule="evenodd">
    <path d="m28.9809 3.14891c0-1.73907-1.2998-3.14891-2.9032-3.14891 0 0-.0016 0-.0034 0-1.6018 0-2.9014 1.40984-2.9014 3.14891v72.70219c0 1.7391 1.2996 3.1489 2.9014 3.1489h.0034c1.6034 0 2.9032-1.4098 2.9032-3.1489 0-12.6908 0-60.0135 0-72.70219z" />
    <path d="m17.2537 63.0648c-1.6027-.0014-2.9035 1.4072-2.9049 3.1464v.0036c-.0012 1.7374 1.2974 3.1483 2.9001 3.1497 4.4587.0041 12.9443.0117 17.4031.0158 1.6033.0014 2.9041-1.4072 2.9054-3.1446 0-.0018 0-.0036 0-.0036.0013-1.7392-1.2973-3.1502-2.9006-3.1516-4.4588-.004-12.9444-.0117-17.4031-.0157z" />
    <path d="m2.905 21.878c-1.6038-.0014-2.90362175 1.4072-2.90499911 3.1464v.0036c-.00123963 1.7374 1.29636911 3.1484 2.90017911 3.1498 9.11252.0082 37.08232.0334 46.19482.0416 1.6026.0014 2.9036-1.4072 2.905-3.1446 0-.0018 0-.0036 0-.0036.0014-1.7392-1.2976-3.1501-2.9002-3.1515-9.1125-.0083-37.0823-.0335-46.1948-.0417z" />
    <path d="m12.4762 5.9619c-1.1348-1.22837-2.97294-1.22614-4.10554.00502 0 0-.00111.00139-.00235.00265-1.13136 1.22976-1.12944 3.22347.00537 4.45173 6.25062 6.7653 24.99152 27.0488 31.24212 33.814 1.1349 1.2283 2.973 1.2261 4.1043-.0038.0013-.0013.0024-.0025.0024-.0025 1.1326-1.2312 1.1308-3.2247-.0042-4.4531-6.2506-6.7652-24.9915-27.0488-31.2421-33.814z" />
    <path d="m8.41136 39.8298c-1.13164 1.2318-1.12834 3.2254.00743 4.4531 0 0 .00124.0012.00248.0026 1.13454 1.2263 2.97253 1.223 4.10423-.0089 6.233-6.7842 24.921-27.1251 31.1541-33.9094 1.1316-1.2317 1.1283-3.22527-.0062-4.45169-.0013-.00125-.0025-.00265-.0025-.00265-1.1358-1.22767-2.9737-1.22418-4.1055.00753-6.233 6.78421-24.9209 27.12511-31.15404 33.90941z" />
  </g>
</svg>
