<svg fill="none" viewBox="0 0 250 78" xmlns="http://www.w3.org/2000/svg">
  <path d="m33.3831 24.5782c0 23.0272-.0299 24.6975-.4774 26.3082-1.1933 4.2952-4.1169 7.1289-8.2637 7.9939-3.7888.8054-7.9356-.5667-11.247-3.7583-.9845-.9843-2.0585-2.2371-2.327-2.774-.2983-.5369-.6563-.9843-.8353-.9843s-2.5358 2.2371-5.28043 4.9514l-4.95227 5.0111.745823.9843c3.609787 4.7725 10.620477 8.9186 17.422477 10.2906 3.1622.6264 8.1145.7159 11.3365.1194 8.6814-1.5213 15.7219-7.6956 18.0787-15.8685.3282-1.0738.716-2.2073.8652-2.4757.2386-.3878.3281-7.2184.3878-27.4715l.0298-26.9048h-7.7565-7.7267zm205.5189-7.6359-4.326 4.3847-3.251-1.6107c-2.387-1.1932-4.028-1.7897-6.236-2.2968-2.804-.6562-3.251-.686-7.995-.5667-4.445.1193-5.28.2088-7.309.8352-17.9 5.369-26.491 23.9518-18.287 39.7307.596 1.1335 1.402 2.5056 1.849 3.1021l.746.9844-4.863 4.8917-4.862 4.862 3.311 3.3705 3.311 3.3706 4.953-4.9216 4.952-4.9514 2.208 1.1931c2.595 1.4019 5.728 2.6248 8.114 3.1916 2.267.5667 9.308.7755 11.695.3877 5.936-1.0141 11.426-3.7583 15.662-7.8149 7.249-7.0095 10.292-16.2264 8.413-25.7713-.537-2.8933-2.238-6.7709-4.236-9.7836l-1.194-1.8195 4.237-4.2355 4.206-4.2356-3.282-3.2512c-1.819-1.8195-3.341-3.3109-3.371-3.3706-.089 0-2.058 1.909-4.445 4.3251zm-18.437 12.826c2.029.4176 4.088 1.1632 4.088 1.4019 0 .1193-4.475 4.6531-9.965 10.1116-9.278 9.2169-10.024 9.8731-10.322 9.4257-1.193-1.6704-1.611-6.8008-.776-9.9029.239-.865.508-1.6405.597-1.73.119-.0895.537-.7756.985-1.5511 2.177-4.0566 6.801-7.278 11.247-7.9044 2.237-.2684 2.177-.2684 4.146.1492zm12.053 11.5732c1.342 5.1006-.537 11.1258-4.654 14.914-4.415 4.1162-10.113 5.1304-15.454 2.7739l-1.551-.6562 10.203-10.2011 10.173-10.1713.448.865c.238.4772.626 1.5809.835 2.4757zm-78.64-24.3992c-1.909.4175-3.132.8351-5.101 1.7896-1.79.865-2.715 1.5213-4.505 3.3408l-2.297 2.2669v-3.2811-3.2214h-7.727-7.727v27.1434 27.1434l7.697-.0597 7.667-.0894.12-17.0318.119-17.0317.895-1.8792c1.85-3.9969 5.698-6.3832 10.263-6.3832 3.222 0 5.459.9844 7.458 3.1618 1.283 1.4019 1.76 2.2968 2.476 4.5637.328 1.1334.418 3.7881.507 18.016l.119 16.7335h7.339 7.22v-18.3143c-.03-16.7932-.06-18.4635-.507-20.641-1.194-5.7269-3.55-9.6642-7.608-12.7365-3.729-2.8336-6.444-3.639-12.082-3.6092-2.088 0-4.027.0597-4.326.1194zm-91.6465 19.7162c0 15.2719.0895 19.1495.358 20.5813.2088.9843.5072 1.909.6265 2.0879.1193.179.3878.7756.5668 1.3721 1.611 5.0708 6.5036 9.7836 12.0525 11.6627 2.4463.8352 8.2936 1.044 11.1575.3878 4.296-.9545 7.7268-2.9231 10.3222-5.8165l1.3425-1.5212v3.3407 3.3706h7.6075 7.607v-27.1434-27.1434h-7.607-7.6075v15.6298c0 16.8528-.1193 18.4337-1.3126 20.8199-2.6552 5.1901-9.4272 7.5166-14.5287 5.0111-3.1324-1.5212-5.0119-4.2952-5.6682-8.2922-.1492-.8948-.2685-8.3518-.2685-17.3896v-15.779h-7.3389-7.3389v18.8214z" fill="#fff" />
</svg>
